<svg width="36" height="36" viewBox="0 0 36 36" fill="none" xmlns="http://www.w3.org/2000/svg">
<rect opacity="0.01" x="35.5364" y="36" width="35.122" height="36" transform="rotate(180 35.5364 36)" fill="#799DAB"/>
<path d="M5.15616 10.9351L17.6245 17.8801C17.844 18.0001 18.1074 18.0001 18.3269 17.8801L30.7952 10.9351C31.0278 10.8174 31.1687 10.5681 31.1528 10.3027C31.1368 10.0373 30.967 9.80763 30.722 9.72011L18.2537 4.50011C18.0756 4.42509 17.8758 4.42509 17.6976 4.50011L5.22933 9.72011C4.98437 9.80763 4.81458 10.0373 4.79859 10.3027C4.78261 10.5681 4.92356 10.8174 5.15616 10.9351Z" fill="#799DAB"/>
<path d="M30.7221 15.9901L28.0441 14.8201L18.327 20.2351C18.1075 20.3551 17.8441 20.3551 17.6246 20.2351L7.90751 14.8201L5.22946 15.9901C4.99831 16.1144 4.85352 16.36 4.85352 16.6276C4.85352 16.8952 4.99831 17.1407 5.22946 17.2651L17.6978 24.6151C17.9133 24.7502 18.1846 24.7502 18.4002 24.6151L30.8685 17.2651C31.0886 17.1149 31.2078 16.8507 31.1769 16.5815C31.146 16.3124 30.9703 16.0838 30.7221 15.9901V15.9901Z" fill="#799DAB"/>
<path d="M30.7217 22.6501L28.4388 21.6301L18.3266 27.2701C18.1071 27.3901 17.8437 27.3901 17.6242 27.2701L7.51196 21.6301L5.22903 22.6501C4.99128 22.7765 4.84204 23.0281 4.84204 23.3026C4.84204 23.5771 4.99128 23.8288 5.22903 23.9551L17.6973 31.4551C17.9168 31.5751 18.1803 31.5751 18.3998 31.4551L30.8681 23.9551C31.0949 23.8028 31.2185 23.5325 31.1875 23.2564C31.1565 22.9803 30.9763 22.7457 30.7217 22.6501Z" fill="#799DAB"/>
</svg>
