<svg width="36" height="36" viewBox="0 0 36 36" fill="none" xmlns="http://www.w3.org/2000/svg">
<path fill-rule="evenodd" clip-rule="evenodd" d="M19.875 4V12.0751L19.875 12.1268V12.1268C19.8749 12.5296 19.8748 12.9212 19.9182 13.2441C19.9672 13.6081 20.0864 14.0235 20.4315 14.3686C20.7765 14.7136 21.192 14.8329 21.556 14.8818C21.8789 14.9252 22.2704 14.9252 22.6733 14.9251H22.6733L22.725 14.9251H30.8V23.95C30.8 27.9805 30.8 29.9958 29.5479 31.2479C28.2958 32.5 26.2805 32.5 22.25 32.5H16.55C12.5195 32.5 10.5042 32.5 9.25212 31.2479C8 29.9958 8 27.9805 8 23.95V12.55C8 8.51949 8 6.50424 9.25212 5.25212C10.5042 4 12.5195 4 16.55 4H19.875ZM21.775 4.00061V12.0751C21.775 12.5498 21.777 12.8102 21.8013 12.9909L21.8022 12.9978L21.8092 12.9988C21.9898 13.0231 22.2503 13.0251 22.725 13.0251H30.7994C30.7957 12.1574 30.7693 11.6645 30.5831 11.2149C30.3661 10.6911 29.9543 10.2793 29.1305 9.45553L29.1305 9.45551L25.3445 5.66949C24.5208 4.84575 24.1089 4.43389 23.5851 4.21694C23.1355 4.0307 22.6426 4.00434 21.775 4.00061Z" fill="#799DAB"/>
</svg>
