<svg width="36" height="36" viewBox="0 0 36 36" fill="none" xmlns="http://www.w3.org/2000/svg">
<rect opacity="0.01" width="36" height="36" fill="#799DAB"/>
<path d="M13.5 4.5H7.5C5.84315 4.5 4.5 5.84315 4.5 7.5V13.5C4.5 15.1569 5.84315 16.5 7.5 16.5H13.5C15.1569 16.5 16.5 15.1569 16.5 13.5V7.5C16.5 5.84315 15.1569 4.5 13.5 4.5Z" fill="#799DAB"/>
<path d="M28.5 4.5H22.5C20.8431 4.5 19.5 5.84315 19.5 7.5V13.5C19.5 15.1569 20.8431 16.5 22.5 16.5H28.5C30.1569 16.5 31.5 15.1569 31.5 13.5V7.5C31.5 5.84315 30.1569 4.5 28.5 4.5Z" fill="#799DAB"/>
<path d="M13.5 19.5H7.5C5.84315 19.5 4.5 20.8431 4.5 22.5V28.5C4.5 30.1569 5.84315 31.5 7.5 31.5H13.5C15.1569 31.5 16.5 30.1569 16.5 28.5V22.5C16.5 20.8431 15.1569 19.5 13.5 19.5Z" fill="#799DAB"/>
<path d="M28.5 19.5H22.5C20.8431 19.5 19.5 20.8431 19.5 22.5V28.5C19.5 30.1569 20.8431 31.5 22.5 31.5H28.5C30.1569 31.5 31.5 30.1569 31.5 28.5V22.5C31.5 20.8431 30.1569 19.5 28.5 19.5Z" fill="#799DAB"/>
</svg>
