<svg width="36" height="33" viewBox="0 0 36 33" fill="none" xmlns="http://www.w3.org/2000/svg">
<rect x="9" y="17.4846" width="5.37985" height="6" rx="2.68993" transform="rotate(90 9 17.4846)" fill="#799DAB" stroke="#799DAB" stroke-width="3"/>
<rect x="25.5" y="16.1395" width="5.37985" height="6" rx="2.68993" transform="rotate(-90 25.5 16.1395)" fill="#799DAB" stroke="#799DAB" stroke-width="3"/>
<path d="M27 14.7947L24.75 16.8121C23.0936 18.2973 22.2654 19.0399 21.2793 19.1321C21.0935 19.1495 20.9065 19.1495 20.7207 19.1321C19.7346 19.0399 18.9064 18.2973 17.25 16.8121V16.8121C15.5936 15.3269 14.7654 14.5843 13.7793 14.4921C13.5935 14.4747 13.4065 14.4747 13.2207 14.4921C12.2346 14.5843 11.4064 15.3269 9.75 16.8121L7.5 18.8296" stroke="#799DAB" stroke-width="3"/>
</svg>
