<svg width="36" height="36" viewBox="0 0 36 36" fill="none" xmlns="http://www.w3.org/2000/svg">
<path fill-rule="evenodd" clip-rule="evenodd" d="M16.5 27C22.299 27 27 22.299 27 16.5C27 10.701 22.299 6 16.5 6C10.701 6 6 10.701 6 16.5C6 22.299 10.701 27 16.5 27ZM16.5 8.99998C15.5151 8.99998 14.5398 9.19398 13.6299 9.57089C12.7199 9.9478 11.8931 10.5002 11.1967 11.1967C10.5003 11.8931 9.94781 12.7199 9.5709 13.6299C9.19399 14.5398 9 15.5151 9 16.5C9 17.3284 9.67157 18 10.5 18C11.3284 18 12 17.3284 12 16.5C12 15.909 12.1164 15.3239 12.3425 14.7779C12.5687 14.2319 12.9002 13.7359 13.318 13.318C13.7359 12.9001 14.232 12.5687 14.7779 12.3425C15.3239 12.1164 15.9091 12 16.5 12C17.3284 12 18 11.3284 18 10.5C18 9.67156 17.3284 8.99998 16.5 8.99998Z" fill="#799DAB"/>
<path d="M30 30L27 27" stroke="#799DAB" stroke-width="3" stroke-linecap="round"/>
</svg>
