<svg width="29" height="24" viewBox="0 0 29 24" fill="none" xmlns="http://www.w3.org/2000/svg">
<circle cx="14.526" cy="6.49996" r="6.33333" fill="#799DAB"/>
<circle cx="22.4426" cy="6.5" r="4.75" fill="#799DAB"/>
<ellipse cx="6.60913" cy="6.5" rx="4.75" ry="4.75" fill="#799DAB"/>
<path fill-rule="evenodd" clip-rule="evenodd" d="M23.3428 20.75H27.6711C28.2628 20.75 28.717 20.2427 28.5976 19.6632C28.1504 17.4939 26.6948 12.8334 22.4428 12.8334C21.0398 12.8334 19.9413 13.3408 19.083 14.0987C21.4703 15.6475 22.7046 18.3596 23.3428 20.75Z" fill="#799DAB"/>
<path fill-rule="evenodd" clip-rule="evenodd" d="M9.96883 14.0987C9.11053 13.3408 8.01201 12.8334 6.60905 12.8334C2.3571 12.8334 0.901477 17.4939 0.454237 19.6632C0.334778 20.2427 0.789063 20.75 1.38069 20.75H5.70899C6.34721 18.3595 7.58156 15.6475 9.96883 14.0987Z" fill="#799DAB"/>
<path d="M14.5258 14.4166C20.8544 14.4166 22.1239 20.4875 22.3786 22.9231C22.436 23.4724 21.9947 23.9166 21.4425 23.9166H7.60913C7.05685 23.9166 6.6156 23.4724 6.67304 22.9231C6.92771 20.4875 8.19723 14.4166 14.5258 14.4166Z" fill="#799DAB"/>
</svg>
