<svg xmlns="http://www.w3.org/2000/svg" width="16" height="15" viewBox="0 0 16 15" fill="none">
<path d="M15.1681 1.21732C15.2008 1.13555 15.2088 1.04596 15.1911 0.959671C15.1734 0.873382 15.1308 0.794186 15.0685 0.7319C15.0062 0.669614 14.927 0.626978 14.8407 0.609277C14.7544 0.591576 14.6649 0.59959 14.5831 0.632323L1.49078 5.86942H1.48988L1.08308 6.03142C1.00603 6.06216 0.938976 6.11359 0.889324 6.18004C0.839671 6.24649 0.809352 6.32537 0.801716 6.40797C0.794079 6.49057 0.809424 6.57368 0.846053 6.6481C0.882682 6.72253 0.939171 6.78539 1.00928 6.82972L1.37828 7.06372L1.37918 7.06552L5.87468 9.92572L8.73488 14.4212L8.73668 14.423L8.97068 14.792C9.01516 14.8619 9.07805 14.9181 9.15242 14.9545C9.22679 14.9909 9.30976 15.006 9.3922 14.9983C9.47464 14.9906 9.55335 14.9603 9.61967 14.9107C9.68599 14.8611 9.73734 14.7942 9.76808 14.7173L15.1681 1.21732ZM13.5184 2.91832L6.77378 9.66292L6.58028 9.35872C6.54482 9.3029 6.4975 9.25558 6.44168 9.22012L6.13748 9.02662L12.8821 2.28202L13.9423 1.85812L13.5193 2.91832H13.5184Z" fill="#EFEFEF"/>
</svg>