<?xml version="1.0" encoding="UTF-8" standalone="no"?>
<!-- Created with Inkscape (http://www.inkscape.org/) -->

<svg
   version="1.1"
   id="svg2"
   width="177.2"
   height="59.093334"
   viewBox="0 0 177.2 59.093334"
   sodipodi:docname="circle solutions_logo_02.eps"
   xmlns:inkscape="http://www.inkscape.org/namespaces/inkscape"
   xmlns:sodipodi="http://sodipodi.sourceforge.net/DTD/sodipodi-0.dtd"
   xmlns="http://www.w3.org/2000/svg"
   xmlns:svg="http://www.w3.org/2000/svg">
  <defs
     id="defs6" />
  <sodipodi:namedview
     id="namedview4"
     pagecolor="#ffffff"
     bordercolor="#000000"
     borderopacity="0.25"
     inkscape:showpageshadow="2"
     inkscape:pageopacity="0.0"
     inkscape:pagecheckerboard="0"
     inkscape:deskcolor="#d1d1d1" />
  <g
     id="g8"
     inkscape:groupmode="layer"
     inkscape:label="ink_ext_XXXXXX"
     transform="matrix(1.3333333,0,0,-1.3333333,0,59.093333)">
    <g
       id="g10"
       transform="scale(0.1)">
      <path
         d="m 540.285,388.207 c 24.199,0 39.211,-14.398 41.813,-35.41 h -30.41 c -0.801,5.402 -5,9.402 -11.403,9.402 -8.808,0 -14.398,-8.203 -14.398,-21 0,-12.801 5.59,-20.801 14.398,-20.801 6.403,0 10.602,3.801 11.403,9.2 h 30.41 c -2.602,-20.801 -17.614,-35.41 -41.813,-35.41 -27.008,0 -45.41,19.21 -45.41,47.011 0,27.797 18.402,47.008 45.41,47.008"
         style="fill:#231f20;fill-opacity:1;fill-rule:nonzero;stroke:none"
         id="path12" />
      <path
         d="m 609.68,393.805 c -9.61,0 -17.801,6.597 -17.801,16.808 0,10.403 8.191,17 17.801,17 9.601,0 17.8,-6.597 17.8,-17 0,-10.211 -8.199,-16.808 -17.8,-16.808 m 15.601,-97.621 h -31.41 v 90.019 h 31.41 v -90.019"
         style="fill:#231f20;fill-opacity:1;fill-rule:nonzero;stroke:none"
         id="path14" />
      <path
         d="m 702.688,356.402 c -3.809,2 -8.008,2.797 -13.008,2.797 -8.602,0 -14.403,-3.808 -16,-10.199 v -52.809 h -31.41 v 90.008 h 31.41 v -7.988 c 4.398,5.988 11.398,10 20.41,10 3.988,0 7.187,-0.801 8.598,-1.602 v -30.207"
         style="fill:#231f20;fill-opacity:1;fill-rule:nonzero;stroke:none"
         id="path16" />
      <path
         d="m 754.68,388.207 c 24.199,0 39.211,-14.398 41.808,-35.41 h -30.41 c -0.797,5.402 -5,9.402 -11.398,9.402 -8.809,0 -14.399,-8.203 -14.399,-21 0,-12.801 5.59,-20.801 14.399,-20.801 6.398,0 10.601,3.801 11.398,9.2 h 30.41 c -2.597,-20.801 -17.609,-35.41 -41.808,-35.41 -27.008,0 -45.41,19.21 -45.41,47.011 0,27.797 18.402,47.008 45.41,47.008"
         style="fill:#231f20;fill-opacity:1;fill-rule:nonzero;stroke:none"
         id="path18" />
      <path
         d="m 839.672,296.191 h -31.41 v 130.032 h 31.41 V 296.191"
         style="fill:#231f20;fill-opacity:1;fill-rule:nonzero;stroke:none"
         id="path20" />
      <path
         d="m 939.887,327.594 c -3.203,-20.801 -18.813,-33.41 -42.211,-33.41 -27.602,0 -45.813,19.007 -45.813,47.007 0,27.813 19.203,47.02 45.211,47.02 27.602,0 43.211,-18.406 43.211,-45.219 v -7.801 h -58.211 c 0.992,-10.796 6.602,-16.597 15.602,-16.597 6.398,0 11.398,2.801 13.211,9 z m -57.223,23.199 h 27.211 c -0.398,7.41 -5,13.008 -12.801,13.008 -7.398,0 -12.398,-4.598 -14.41,-13.008"
         style="fill:#231f20;fill-opacity:1;fill-rule:nonzero;stroke:none"
         id="path22" />
      <path
         d="m 525.082,173.988 c 1.398,-5 5.801,-7.8 11.398,-7.8 5.2,0 9.211,2 9.211,6.203 0,3.41 -2.609,4.609 -7.011,5.597 l -17.598,3.61 c -15,3.191 -24.812,10.402 -24.812,26.203 0,19.207 17.21,30.41 38.41,30.41 24.613,0 38.011,-11.41 40.812,-29.211 h -29 c -1.012,3.801 -3.812,7.211 -11.012,7.211 -4.597,0 -8.398,-2.012 -8.398,-6.012 0,-2.801 2,-4.199 6.199,-5 L 551.09,201 c 16.402,-3.801 25.203,-12.402 25.203,-27.012 0,-19.199 -17.402,-29.8 -39.41,-29.8 -23,0 -39.602,10.402 -42.41,29.8 h 30.609"
         style="fill:#231f20;fill-opacity:1;fill-rule:nonzero;stroke:none"
         id="path24" />
      <path
         d="m 630.48,144.184 c -27.21,0 -46.007,19.211 -46.007,47.011 0,27.797 18.797,47.008 46.007,47.008 27.403,0 46.02,-19.211 46.02,-47.008 0,-27.8 -18.617,-47.011 -46.02,-47.011 m 0,68.211 c -9.597,0 -15,-8.801 -15,-21.2 0,-12.402 5.403,-21 15,-21 9.801,0 15.211,8.598 15.211,21 0,12.399 -5.41,21.2 -15.211,21.2"
         style="fill:#231f20;fill-opacity:1;fill-rule:nonzero;stroke:none"
         id="path26" />
      <path
         d="m 720.07,146.191 h -31.41 v 130.032 h 31.41 V 146.191"
         style="fill:#231f20;fill-opacity:1;fill-rule:nonzero;stroke:none"
         id="path28" />
      <path
         d="m 823.684,146.188 h -31.411 v 7.796 c -4.8,-5.597 -13.8,-9.796 -24,-9.796 -19.8,0 -31.609,13.007 -31.609,33.007 v 59.012 h 31.211 v -51.609 c 0,-7.602 3.598,-13 11.598,-13 5.8,0 11.203,3.797 12.8,10 v 54.609 h 31.411 v -90.019"
         style="fill:#231f20;fill-opacity:1;fill-rule:nonzero;stroke:none"
         id="path30" />
      <path
         d="m 847.063,211.801 h -13.2 v 24.402 h 13.2 v 24.809 h 31.011 v -24.809 h 18.801 v -24.402 h -18.801 v -30.008 c 0,-7 3.399,-10 9.61,-10 3.39,0 7.187,0.801 10,2 v -26.609 c -3.61,-1.59 -10.411,-2.793 -17.411,-2.793 -21.21,0 -33.21,10 -33.21,32.8 v 34.61"
         style="fill:#231f20;fill-opacity:1;fill-rule:nonzero;stroke:none"
         id="path32" />
      <path
         d="m 927.875,243.805 c -9.609,0 -17.812,6.597 -17.812,16.808 0,10.403 8.203,17 17.812,17 9.598,0 17.801,-6.597 17.801,-17 0,-10.211 -8.203,-16.808 -17.801,-16.808 m 15.598,-97.621 h -31.41 v 90.019 h 31.41 v -90.019"
         style="fill:#231f20;fill-opacity:1;fill-rule:nonzero;stroke:none"
         id="path34" />
      <path
         d="m 1001.67,144.184 c -27.205,0 -46.006,19.211 -46.006,47.011 0,27.797 18.801,47.008 46.006,47.008 27.4,0 46.02,-19.211 46.02,-47.008 0,-27.8 -18.62,-47.011 -46.02,-47.011 m 0,68.211 c -9.596,0 -14.998,-8.801 -14.998,-21.2 0,-12.402 5.402,-21 14.998,-21 9.8,0 15.21,8.598 15.21,21 0,12.399 -5.41,21.2 -15.21,21.2"
         style="fill:#231f20;fill-opacity:1;fill-rule:nonzero;stroke:none"
         id="path36" />
      <path
         d="m 1059.86,236.207 h 31.41 v -7.801 c 5.01,5.602 13.8,9.801 24.21,9.801 20,0 31.8,-13.012 31.8,-33.012 v -59.007 h -31.21 v 51.41 c 0,7.398 -3.8,12.797 -11.8,12.797 -6.2,0 -11.4,-3.59 -13,-9.797 v -54.41 h -31.41 v 90.019"
         style="fill:#231f20;fill-opacity:1;fill-rule:nonzero;stroke:none"
         id="path38" />
      <path
         d="m 1189.07,173.988 c 1.4,-5 5.8,-7.8 11.4,-7.8 5.19,0 9.2,2 9.2,6.203 0,3.41 -2.6,4.609 -7,5.597 l -17.6,3.61 c -15,3.191 -24.81,10.402 -24.81,26.203 0,19.207 17.21,30.41 38.41,30.41 24.61,0 38.01,-11.41 40.81,-29.211 h -29 c -1.01,3.801 -3.81,7.211 -11.01,7.211 -4.6,0 -8.4,-2.012 -8.4,-6.012 0,-2.801 2,-4.199 6.2,-5 L 1215.08,201 c 16.4,-3.801 25.19,-12.402 25.19,-27.012 0,-19.199 -17.39,-29.8 -39.4,-29.8 -23.01,0 -39.61,10.402 -42.41,29.8 h 30.61"
         style="fill:#231f20;fill-opacity:1;fill-rule:nonzero;stroke:none"
         id="path40" />
      <path
         d="m 511.313,17.9805 c 0,-8.28909 -4.602,-12.78909 -12.891,-12.78909 -0.899,0 -2.399,0.08984 -3.192,0.39843 v 6.39066 c 0.59,-0.0899 1.704,-0.3008 2.59,-0.3008 3.903,0 6,1.8008 6,6.8008 v 48.9687 h 7.493 z m -3.801,58.0703 c -2.602,0 -4.789,2.1914 -4.789,4.789 0,2.711 2.187,4.8125 4.789,4.8125 2.711,0 4.898,-2.1015 4.898,-4.8125 0,-2.5976 -2.187,-4.789 -4.898,-4.789"
         style="fill:#231f20;fill-opacity:1;fill-rule:nonzero;stroke:none"
         id="path42" />
      <path
         d="m 559.906,23.0781 h -7.601 v 5.6016 c -2.5,-3.5 -7.188,-6.5 -12.887,-6.5 -10.102,0 -15.5,6.5 -15.5,16.1875 v 29.082 h 7.598 V 39.5664 c 0,-6.1992 3,-10.4883 9.699,-10.4883 5.191,0 9.492,3.4883 11.09,8.3008 v 30.0703 h 7.601 V 23.0781"
         style="fill:#231f20;fill-opacity:1;fill-rule:nonzero;stroke:none"
         id="path44" />
      <path
         d="m 577.316,35.2773 c 1.411,-4.6015 5.301,-6.8007 10.5,-6.8007 5.293,0 9.09,2.0976 9.09,6.5898 0,3.0977 -1.988,5 -6.59,6.2109 l -8.796,2.2891 c -6.301,1.5977 -10.692,4.8008 -10.692,11.6914 0,7.8985 6.891,13.0977 15.879,13.0977 9.801,0 15.602,-4.8008 17.199,-12.5899 h -7.5 c -1.297,3.9922 -4.386,6.2891 -9.789,6.2891 -4.398,0 -8.5,-2.0977 -8.5,-6.3984 0,-3 2,-4.3907 6.199,-5.5899 l 8.59,-2.1016 c 7.602,-2 11.293,-6.1992 11.293,-12.3984 0,-8.3789 -6.992,-13.3789 -16.48,-13.3789 -9.699,0 -16.801,4.8867 -18.192,13.0898 h 7.789"
         style="fill:#231f20;fill-opacity:1;fill-rule:nonzero;stroke:none"
         id="path46" />
      <path
         d="m 616.723,61.0586 h -7.2 v 6.3984 h 7.2 v 11.6797 h 7.492 V 67.457 h 10.687 V 61.0586 H 624.215 V 35.0664 c 0,-4.2891 2.098,-6.1875 5.898,-6.1875 2.102,0 4.301,0.7891 5.801,1.8008 v -7 c -1.699,-0.9024 -4.301,-1.5 -7,-1.5 -7.199,0 -12.191,3.8984 -12.191,12.0898 v 26.7891"
         style="fill:#231f20;fill-opacity:1;fill-rule:nonzero;stroke:none"
         id="path48" />
      <path
         d="m 685.414,68.3516 c 9.988,0 16.289,-5.7891 17.777,-14.2891 h -7.687 c -1,4.8008 -4.801,7.6992 -10.09,7.6992 -7.601,0 -12.601,-6.8008 -12.601,-16.5 0,-9.6914 5,-16.4883 12.601,-16.4883 5.289,0 9.09,2.8985 10.09,7.6993 h 7.687 c -1.488,-8.5 -7.789,-14.2891 -17.777,-14.2891 -11.891,0 -20.191,9.2891 -20.191,23.0781 0,13.7891 8.3,23.0899 20.191,23.0899"
         style="fill:#231f20;fill-opacity:1;fill-rule:nonzero;stroke:none"
         id="path50" />
      <path
         d="m 730.016,22.1797 c -12.203,0 -20.391,9.4922 -20.391,23.082 0,13.5977 8.188,23.0899 20.391,23.0899 12.089,0 20.386,-9.4922 20.386,-23.0899 0,-13.5898 -8.297,-23.082 -20.386,-23.082 m 0,39.582 c -8,0 -12.793,-6.8008 -12.793,-16.5 0,-9.6914 4.793,-16.4922 12.793,-16.4922 8,0 12.789,6.8008 12.789,16.4922 0,9.6992 -4.789,16.5 -12.789,16.5"
         style="fill:#231f20;fill-opacity:1;fill-rule:nonzero;stroke:none"
         id="path52" />
      <path
         d="m 760.629,67.4531 h 7.488 v -5.6015 c 2.602,3.5 7.403,6.5 13.102,6.5 10.09,0 15.59,-6.5 15.59,-16.1875 V 23.082 h -7.59 v 27.8828 c 0,6.1993 -3.11,10.5 -9.801,10.5 -5.199,0 -9.699,-3.5 -11.301,-8.3007 V 23.082 h -7.488 v 44.3711"
         style="fill:#231f20;fill-opacity:1;fill-rule:nonzero;stroke:none"
         id="path54" />
      <path
         d="m 809.523,67.4531 h 7.493 v -5.6015 c 2.597,3.5 7.398,6.5 13.097,6.5 10.09,0 15.59,-6.5 15.59,-16.1875 V 23.082 h -7.598 v 27.8828 c 0,6.1993 -3.101,10.5 -9.789,10.5 -5.203,0 -9.703,-3.5 -11.3,-8.3007 V 23.082 h -7.493 v 44.3711"
         style="fill:#231f20;fill-opacity:1;fill-rule:nonzero;stroke:none"
         id="path56" />
      <path
         d="m 893.5,36.3672 c -1.602,-8.3984 -7.902,-14.1875 -17.891,-14.1875 -12.089,0 -20.39,9.3008 -20.39,22.9883 0,13.2929 8.101,23.1797 20.191,23.1797 12.188,0 18.688,-8.8868 18.688,-21.7774 v -2.7031 h -31.379 c 0.101,-9.5 5.39,-15.2891 12.89,-15.2891 5.5,0 9.602,2.7891 10.789,7.7891 z m -30.59,13.1914 h 23.598 c -0.11,6.6016 -3.598,12.4023 -11,12.4023 -6.699,0 -11.488,-4.6015 -12.598,-12.4023"
         style="fill:#231f20;fill-opacity:1;fill-rule:nonzero;stroke:none"
         id="path58" />
      <path
         d="m 921.313,68.3516 c 9.988,0 16.289,-5.7891 17.781,-14.2891 h -7.692 c -1,4.8008 -4.8,7.6992 -10.089,7.6992 -7.602,0 -12.602,-6.8008 -12.602,-16.5 0,-9.6914 5,-16.4883 12.602,-16.4883 5.289,0 9.089,2.8985 10.089,7.6993 h 7.692 c -1.492,-8.5 -7.793,-14.2891 -17.781,-14.2891 -11.903,0 -20.2,9.2891 -20.2,23.0781 0,13.7891 8.297,23.0899 20.2,23.0899"
         style="fill:#231f20;fill-opacity:1;fill-rule:nonzero;stroke:none"
         id="path60" />
      <path
         d="m 951.32,61.0586 h -7.199 v 6.3984 h 7.199 v 11.6797 h 7.493 V 67.457 h 10.691 V 61.0586 H 958.813 V 35.0664 c 0,-4.2891 2.097,-6.1875 5.898,-6.1875 2.102,0 4.301,0.7891 5.801,1.8008 v -7 c -1.699,-0.9024 -4.301,-1.5 -7,-1.5 -7.199,0 -12.192,3.8984 -12.192,12.0898 v 26.7891"
         style="fill:#231f20;fill-opacity:1;fill-rule:nonzero;stroke:none"
         id="path62" />
      <path
         d="m 1005.12,61.0586 h -7.198 v 6.3984 h 7.198 v 11.6797 h 7.49 V 67.457 h 10.69 v -6.3984 h -10.69 V 35.0664 c 0,-4.2891 2.1,-6.1875 5.9,-6.1875 2.1,0 4.3,0.7891 5.8,1.8008 v -7 c -1.7,-0.9024 -4.3,-1.5 -7,-1.5 -7.2,0 -12.19,3.8984 -12.19,12.0898 v 26.7891"
         style="fill:#231f20;fill-opacity:1;fill-rule:nonzero;stroke:none"
         id="path64" />
      <path
         d="m 1034.72,88.0391 h 7.49 V 61.8594 c 2.6,3.4883 7.4,6.4883 13.1,6.4883 10.09,0 15.59,-6.4883 15.59,-16.1875 V 23.0781 h -7.6 v 27.8828 c 0,6.1993 -3.1,10.5 -9.79,10.5 -5.2,0 -9.7,-3.5 -11.3,-8.2929 V 23.0781 h -7.49 v 64.961"
         style="fill:#231f20;fill-opacity:1;fill-rule:nonzero;stroke:none"
         id="path66" />
      <path
         d="m 1118.7,36.3672 c -1.6,-8.3984 -7.91,-14.1875 -17.89,-14.1875 -12.1,0 -20.39,9.3008 -20.39,22.9883 0,13.2929 8.08,23.1797 20.18,23.1797 12.19,0 18.68,-8.8868 18.68,-21.7774 v -2.7031 h -31.36 c 0.09,-9.5 5.39,-15.2891 12.89,-15.2891 5.49,0 9.59,2.7891 10.78,7.7891 z m -30.6,13.1914 h 23.61 c -0.12,6.6016 -3.62,12.4023 -11.01,12.4023 -6.7,0 -11.49,-4.6015 -12.6,-12.4023"
         style="fill:#231f20;fill-opacity:1;fill-rule:nonzero;stroke:none"
         id="path68" />
      <path
         d="m 1180.7,28.2734 c -2.2,-3.1875 -6.99,-6.0898 -12.49,-6.0898 -12.99,0 -19.99,10.5 -19.99,23.082 0,12.4883 7,23.0899 19.99,23.0899 5.5,0 10.29,-2.9024 12.49,-6.0899 V 88.043 h 7.6 V 23.0742 h -7.6 z m 0,25.9922 c -2.29,4.5977 -6.69,7.2891 -11.39,7.2891 -8.49,0 -13.49,-6.8906 -13.49,-16.2891 0,-9.3906 5,-16.2929 13.49,-16.2929 4.7,0 9.1,2.7031 11.39,7.3007 v 17.9922"
         style="fill:#231f20;fill-opacity:1;fill-rule:nonzero;stroke:none"
         id="path70" />
      <path
         d="m 1218.8,22.1797 c -12.2,0 -20.39,9.4922 -20.39,23.082 0,13.5977 8.19,23.0899 20.39,23.0899 12.09,0 20.39,-9.4922 20.39,-23.0899 0,-13.5898 -8.3,-23.082 -20.39,-23.082 m 0,39.582 c -8,0 -12.79,-6.8008 -12.79,-16.5 0,-9.6914 4.79,-16.4922 12.79,-16.4922 8,0 12.79,6.8008 12.79,16.4922 0,9.6992 -4.79,16.5 -12.79,16.5"
         style="fill:#231f20;fill-opacity:1;fill-rule:nonzero;stroke:none"
         id="path72" />
      <path
         d="m 1251.52,61.0586 h -7.2 v 6.3984 h 7.2 v 11.6797 h 7.49 V 67.457 h 10.69 v -6.3984 h -10.69 V 35.0664 c 0,-4.2891 2.1,-6.1875 5.9,-6.1875 2.1,0 4.29,0.7891 5.8,1.8008 v -7 c -1.7,-0.9024 -4.3,-1.5 -7,-1.5 -7.2,0 -12.19,3.8984 -12.19,12.0898 v 26.7891"
         style="fill:#231f20;fill-opacity:1;fill-rule:nonzero;stroke:none"
         id="path74" />
      <path
         d="m 1284.91,35.2773 c 1.41,-4.6015 5.3,-6.8007 10.5,-6.8007 5.29,0 9.09,2.0976 9.09,6.5898 0,3.0977 -1.99,5 -6.59,6.2109 l -8.8,2.2891 c -6.3,1.5977 -10.7,4.8008 -10.7,11.6914 0,7.8985 6.9,13.0977 15.89,13.0977 9.8,0 15.6,-4.8008 17.2,-12.5899 h -7.5 c -1.3,3.9922 -4.39,6.2891 -9.79,6.2891 -4.4,0 -8.5,-2.0977 -8.5,-6.3984 0,-3 2,-4.3907 6.2,-5.5899 l 8.59,-2.1016 c 7.6,-2 11.29,-6.1992 11.29,-12.3984 0,-8.3789 -6.99,-13.3789 -16.48,-13.3789 -9.7,0 -16.8,4.8867 -18.19,13.0898 h 7.79"
         style="fill:#231f20;fill-opacity:1;fill-rule:nonzero;stroke:none"
         id="path76" />
      <path
         d="m 217.371,375.699 c 81.352,0 147.539,-67.558 147.539,-150.609 0,-83.051 -66.187,-150.6095 -147.539,-150.6095 -81.348,0 -147.539,67.5585 -147.539,150.6095 0,83.051 66.191,150.609 147.539,150.609 m 0,51.91 c -110.148,0 -199.4491,-90.668 -199.4491,-202.519 0,-111.848 89.3011,-202.5197 199.4491,-202.5197 110.152,0 199.449,90.6717 199.449,202.5197 0,111.851 -89.297,202.519 -199.449,202.519"
         style="fill:#231f20;fill-opacity:1;fill-rule:nonzero;stroke:none"
         id="path78" />
    </g>
  </g>
</svg>
