<?xml version="1.0" encoding="UTF-8" standalone="no"?>
<!-- Created with Inkscape (http://www.inkscape.org/) -->

<svg
   version="1.1"
   id="svg2"
   width="177.2"
   height="59.093334"
   viewBox="0 0 177.2 59.093334"
   sodipodi:docname="circle solutions_logo_01.eps"
   xmlns:inkscape="http://www.inkscape.org/namespaces/inkscape"
   xmlns:sodipodi="http://sodipodi.sourceforge.net/DTD/sodipodi-0.dtd"
   xmlns="http://www.w3.org/2000/svg"
   xmlns:svg="http://www.w3.org/2000/svg">
  <defs
     id="defs6" />
  <sodipodi:namedview
     id="namedview4"
     pagecolor="#ffffff"
     bordercolor="#000000"
     borderopacity="0.25"
     inkscape:showpageshadow="2"
     inkscape:pageopacity="0.0"
     inkscape:pagecheckerboard="0"
     inkscape:deskcolor="#d1d1d1" />
  <g
     id="g8"
     inkscape:groupmode="layer"
     inkscape:label="ink_ext_XXXXXX"
     transform="matrix(1.3333333,0,0,-1.3333333,0,59.093333)">
    <g
       id="g10"
       transform="scale(0.1)">
      <path
         d="m 539.961,388.633 c 24.199,0 39.211,-14.403 41.809,-35.41 h -30.411 c -0.8,5.398 -5,9.398 -11.398,9.398 -8.813,0 -14.402,-8.199 -14.402,-21 0,-12.801 5.589,-20.801 14.402,-20.801 6.398,0 10.598,3.801 11.398,9.203 h 30.411 c -2.598,-20.8 -17.61,-35.41 -41.809,-35.41 -27.012,0 -45.41,19.207 -45.41,47.008 0,27.801 18.398,47.012 45.41,47.012"
         style="fill:#769caa;fill-opacity:1;fill-rule:nonzero;stroke:none"
         id="path12" />
      <path
         d="m 609.355,394.227 c -9.613,0 -17.8,6.601 -17.8,16.812 0,10.399 8.187,17 17.8,17 9.598,0 17.797,-6.601 17.797,-17 0,-10.211 -8.199,-16.812 -17.797,-16.812 m 15.598,-97.618 h -31.41 v 90.02 h 31.41 v -90.02"
         style="fill:#769caa;fill-opacity:1;fill-rule:nonzero;stroke:none"
         id="path14" />
      <path
         d="m 702.363,356.828 c -3.812,2 -8.011,2.797 -13.011,2.797 -8.598,0 -14.399,-3.809 -16,-10.199 v -52.809 h -31.411 v 90.008 h 31.411 v -7.988 c 4.402,5.988 11.402,10 20.41,10 3.992,0 7.191,-0.801 8.601,-1.602 v -30.207"
         style="fill:#769caa;fill-opacity:1;fill-rule:nonzero;stroke:none"
         id="path16" />
      <path
         d="m 754.355,388.633 c 24.2,0 39.208,-14.403 41.809,-35.41 h -30.41 c -0.801,5.398 -5,9.398 -11.399,9.398 -8.812,0 -14.402,-8.199 -14.402,-21 0,-12.801 5.59,-20.801 14.402,-20.801 6.399,0 10.598,3.801 11.399,9.203 h 30.41 c -2.601,-20.8 -17.609,-35.41 -41.809,-35.41 -27.011,0 -45.41,19.207 -45.41,47.008 0,27.801 18.399,47.012 45.41,47.012"
         style="fill:#769caa;fill-opacity:1;fill-rule:nonzero;stroke:none"
         id="path18" />
      <path
         d="m 839.344,296.609 h -31.41 v 130.032 h 31.41 V 296.609"
         style="fill:#769caa;fill-opacity:1;fill-rule:nonzero;stroke:none"
         id="path20" />
      <path
         d="m 939.559,328.016 c -3.2,-20.797 -18.809,-33.411 -42.211,-33.411 -27.598,0 -45.809,19.012 -45.809,47.012 0,27.809 19.199,47.02 45.211,47.02 27.598,0 43.211,-18.41 43.211,-45.219 v -7.801 H 881.75 c 0.988,-10.801 6.598,-16.601 15.598,-16.601 6.402,0 11.402,2.8 13.211,9 z m -57.219,23.203 h 27.211 c -0.403,7.41 -5,13.008 -12.801,13.008 -7.402,0 -12.402,-4.598 -14.41,-13.008"
         style="fill:#769caa;fill-opacity:1;fill-rule:nonzero;stroke:none"
         id="path22" />
      <path
         d="m 524.754,174.414 c 1.402,-5 5.801,-7.801 11.402,-7.801 5.199,0 9.207,2 9.207,6.2 0,3.41 -2.609,4.609 -7.008,5.601 l -17.601,3.609 c -15,3.192 -24.809,10.399 -24.809,26.2 0,19.211 17.211,30.41 38.41,30.41 24.61,0 38.008,-11.41 40.809,-29.211 h -29 c -1.008,3.801 -3.809,7.211 -11.008,7.211 -4.601,0 -8.402,-2.012 -8.402,-6.012 0,-2.797 2,-4.199 6.199,-5 l 17.813,-4.199 c 16.398,-3.801 25.199,-12.399 25.199,-27.008 0,-19.199 -17.399,-29.801 -39.41,-29.801 -23,0 -39.602,10.399 -42.41,29.801 h 30.609"
         style="fill:#769caa;fill-opacity:1;fill-rule:nonzero;stroke:none"
         id="path24" />
      <path
         d="m 630.156,144.609 c -27.211,0 -46.011,19.211 -46.011,47.008 0,27.801 18.8,47.012 46.011,47.012 27.399,0 46.02,-19.211 46.02,-47.012 0,-27.797 -18.621,-47.008 -46.02,-47.008 m 0,68.211 c -9.601,0 -15,-8.8 -15,-21.203 0,-12.398 5.399,-21 15,-21 9.797,0 15.207,8.602 15.207,21 0,12.403 -5.41,21.203 -15.207,21.203"
         style="fill:#769caa;fill-opacity:1;fill-rule:nonzero;stroke:none"
         id="path26" />
      <path
         d="m 719.746,146.609 h -31.41 v 130.032 h 31.41 V 146.609"
         style="fill:#769caa;fill-opacity:1;fill-rule:nonzero;stroke:none"
         id="path28" />
      <path
         d="m 823.359,146.609 h -31.41 v 7.801 c -4.801,-5.597 -13.801,-9.801 -24,-9.801 -19.801,0 -31.609,13.012 -31.609,33.012 v 59.012 h 31.207 V 185.02 c 0,-7.598 3.601,-13 11.601,-13 5.801,0 11.2,3.8 12.801,10 v 54.613 h 31.41 v -90.024"
         style="fill:#769caa;fill-opacity:1;fill-rule:nonzero;stroke:none"
         id="path30" />
      <path
         d="m 846.738,212.227 h -13.203 v 24.398 h 13.203 v 24.813 h 31.008 v -24.813 h 18.801 v -24.398 h -18.801 v -30.012 c 0,-7 3.402,-10 9.609,-10 3.391,0 7.192,0.801 10,2 v -26.61 c -3.609,-1.589 -10.41,-2.789 -17.41,-2.789 -21.207,0 -33.207,10 -33.207,32.801 v 34.61"
         style="fill:#769caa;fill-opacity:1;fill-rule:nonzero;stroke:none"
         id="path32" />
      <path
         d="m 927.547,244.227 c -9.609,0 -17.809,6.601 -17.809,16.812 0,10.399 8.2,17 17.809,17 9.601,0 17.801,-6.601 17.801,-17 0,-10.211 -8.2,-16.812 -17.801,-16.812 m 15.601,-97.618 h -31.41 v 90.02 h 31.41 v -90.02"
         style="fill:#769caa;fill-opacity:1;fill-rule:nonzero;stroke:none"
         id="path34" />
      <path
         d="m 1001.35,144.609 c -27.213,0 -46.014,19.211 -46.014,47.008 0,27.801 18.801,47.012 46.014,47.012 27.4,0 46.02,-19.211 46.02,-47.012 0,-27.797 -18.62,-47.008 -46.02,-47.008 m 0,68.211 c -9.604,0 -15.002,-8.8 -15.002,-21.203 0,-12.398 5.398,-21 15.002,-21 9.8,0 15.21,8.602 15.21,21 0,12.403 -5.41,21.203 -15.21,21.203"
         style="fill:#769caa;fill-opacity:1;fill-rule:nonzero;stroke:none"
         id="path36" />
      <path
         d="m 1059.53,236.629 h 31.41 v -7.801 c 5.01,5.602 13.8,9.801 24.21,9.801 20,0 31.8,-13.008 31.8,-33.008 v -59.012 h -31.21 v 51.411 c 0,7.402 -3.8,12.8 -11.8,12.8 -6.2,0 -11.4,-3.59 -13,-9.8 v -54.411 h -31.41 v 90.02"
         style="fill:#769caa;fill-opacity:1;fill-rule:nonzero;stroke:none"
         id="path38" />
      <path
         d="m 1188.74,174.414 c 1.4,-5 5.8,-7.801 11.4,-7.801 5.2,0 9.21,2 9.21,6.2 0,3.41 -2.61,4.609 -7.01,5.601 l -17.6,3.609 c -15,3.192 -24.81,10.399 -24.81,26.2 0,19.211 17.21,30.41 38.41,30.41 24.61,0 38.01,-11.41 40.81,-29.211 h -29 c -1.01,3.801 -3.81,7.211 -11.01,7.211 -4.6,0 -8.4,-2.012 -8.4,-6.012 0,-2.797 2,-4.199 6.2,-5 l 17.81,-4.199 c 16.4,-3.801 25.2,-12.399 25.2,-27.008 0,-19.199 -17.4,-29.801 -39.41,-29.801 -23,0 -39.6,10.399 -42.41,29.801 h 30.61"
         style="fill:#769caa;fill-opacity:1;fill-rule:nonzero;stroke:none"
         id="path40" />
      <path
         d="m 510.984,18.4063 c 0,-8.293 -4.597,-12.79302 -12.886,-12.79302 -0.903,0 -2.403,0.08985 -3.192,0.40235 v 6.39067 c 0.59,-0.0899 1.699,-0.3008 2.59,-0.3008 3.899,0 6,1.8008 6,6.8008 V 67.875 h 7.488 z m -3.796,58.0703 c -2.602,0 -4.793,2.1875 -4.793,4.789 0,2.711 2.191,4.8086 4.793,4.8086 2.707,0 4.898,-2.0976 4.898,-4.8086 0,-2.6015 -2.191,-4.789 -4.898,-4.789"
         style="fill:#769caa;fill-opacity:1;fill-rule:nonzero;stroke:none"
         id="path42" />
      <path
         d="m 559.578,23.5039 h -7.598 v 5.5977 c -2.5,-3.5 -7.191,-6.5 -12.89,-6.5 -10.102,0 -15.5,6.5 -15.5,16.1914 v 29.0781 h 7.601 V 39.9922 c 0,-6.1992 3,-10.4883 9.7,-10.4883 5.187,0 9.488,3.4883 11.089,8.3008 v 30.0664 h 7.598 V 23.5039"
         style="fill:#769caa;fill-opacity:1;fill-rule:nonzero;stroke:none"
         id="path44" />
      <path
         d="m 576.992,35.6992 c 1.41,-4.5976 5.301,-6.8008 10.5,-6.8008 5.289,0 9.09,2.1016 9.09,6.5899 0,3.1015 -1.988,5 -6.59,6.2109 l -8.801,2.2891 c -6.3,1.6015 -10.687,4.8008 -10.687,11.6914 0,7.8984 6.887,13.1016 15.879,13.1016 9.801,0 15.597,-4.8008 17.199,-12.5899 h -7.5 c -1.301,3.9883 -4.391,6.2891 -9.789,6.2891 -4.402,0 -8.5,-2.1016 -8.5,-6.4024 0,-3 2,-4.3867 6.199,-5.5898 l 8.59,-2.0977 c 7.602,-2 11.289,-6.1992 11.289,-12.4023 0,-8.3789 -6.988,-13.3789 -16.48,-13.3789 -9.7,0 -16.797,4.8906 -18.188,13.0898 h 7.789"
         style="fill:#769caa;fill-opacity:1;fill-rule:nonzero;stroke:none"
         id="path46" />
      <path
         d="m 616.398,61.4805 h -7.203 v 6.4023 h 7.203 v 11.6797 h 7.489 V 67.8828 h 10.691 V 61.4805 H 623.887 V 35.4922 c 0,-4.2891 2.101,-6.1914 5.898,-6.1914 2.102,0 4.301,0.793 5.801,1.8008 v -7 c -1.699,-0.8985 -4.301,-1.5 -7,-1.5 -7.199,0 -12.188,3.9023 -12.188,12.0898 v 26.7891"
         style="fill:#769caa;fill-opacity:1;fill-rule:nonzero;stroke:none"
         id="path48" />
      <path
         d="m 685.086,68.7773 c 9.992,0 16.293,-5.7929 17.781,-14.2929 h -7.691 c -1,4.8008 -4.797,7.7031 -10.09,7.7031 -7.598,0 -12.598,-6.8008 -12.598,-16.5 0,-9.6914 5,-16.4922 12.598,-16.4922 5.293,0 9.09,2.9024 10.09,7.6992 h 7.691 c -1.488,-8.5 -7.789,-14.289 -17.781,-14.289 -11.891,0 -20.188,9.289 -20.188,23.082 0,13.7891 8.297,23.0898 20.188,23.0898"
         style="fill:#769caa;fill-opacity:1;fill-rule:nonzero;stroke:none"
         id="path50" />
      <path
         d="m 729.688,22.6055 c -12.2,0 -20.391,9.4922 -20.391,23.082 0,13.5977 8.191,23.0898 20.391,23.0898 12.089,0 20.39,-9.4921 20.39,-23.0898 0,-13.5898 -8.301,-23.082 -20.39,-23.082 m 0,39.582 c -8,0 -12.79,-6.8008 -12.79,-16.5 0,-9.6914 4.79,-16.4922 12.79,-16.4922 8,0 12.789,6.8008 12.789,16.4922 0,9.6992 -4.789,16.5 -12.789,16.5"
         style="fill:#769caa;fill-opacity:1;fill-rule:nonzero;stroke:none"
         id="path52" />
      <path
         d="m 760.301,67.8789 h 7.492 v -5.6016 c 2.598,3.5 7.398,6.5 13.098,6.5 10.089,0 15.589,-6.5 15.589,-16.1875 v -29.082 h -7.589 v 27.8789 c 0,6.2031 -3.11,10.5 -9.797,10.5 -5.203,0 -9.703,-3.5 -11.301,-8.2969 v -30.082 h -7.492 v 44.3711"
         style="fill:#769caa;fill-opacity:1;fill-rule:nonzero;stroke:none"
         id="path54" />
      <path
         d="m 809.199,67.8789 h 7.489 v -5.6016 c 2.601,3.5 7.402,6.5 13.101,6.5 10.09,0 15.59,-6.5 15.59,-16.1875 v -29.082 h -7.602 v 27.8789 c 0,6.2031 -3.097,10.5 -9.789,10.5 -5.199,0 -9.699,-3.5 -11.3,-8.2969 v -30.082 h -7.489 v 44.3711"
         style="fill:#769caa;fill-opacity:1;fill-rule:nonzero;stroke:none"
         id="path56" />
      <path
         d="m 893.172,36.793 c -1.598,-8.3985 -7.899,-14.1875 -17.891,-14.1875 -12.09,0 -20.386,9.2968 -20.386,22.9883 0,13.289 8.097,23.1796 20.187,23.1796 12.191,0 18.691,-8.8906 18.691,-21.7812 V 44.293 h -31.378 c 0.097,-9.5 5.386,-15.2891 12.886,-15.2891 5.5,0 9.602,2.7891 10.793,7.7891 z m -30.59,13.1914 h 23.602 c -0.11,6.6015 -3.602,12.3984 -11,12.3984 -6.7,0 -11.493,-4.5976 -12.602,-12.3984"
         style="fill:#769caa;fill-opacity:1;fill-rule:nonzero;stroke:none"
         id="path58" />
      <path
         d="m 920.984,68.7773 c 9.993,0 16.293,-5.7929 17.782,-14.2929 h -7.692 c -1,4.8008 -4.797,7.7031 -10.09,7.7031 -7.597,0 -12.597,-6.8008 -12.597,-16.5 0,-9.6914 5,-16.4922 12.597,-16.4922 5.293,0 9.09,2.9024 10.09,7.6992 h 7.692 c -1.489,-8.5 -7.789,-14.289 -17.782,-14.289 -11.898,0 -20.199,9.289 -20.199,23.082 0,13.7891 8.301,23.0898 20.199,23.0898"
         style="fill:#769caa;fill-opacity:1;fill-rule:nonzero;stroke:none"
         id="path60" />
      <path
         d="m 950.996,61.4805 h -7.199 v 6.4023 h 7.199 v 11.6797 h 7.488 V 67.8828 h 10.692 V 61.4805 H 958.484 V 35.4922 c 0,-4.2891 2.102,-6.1914 5.903,-6.1914 2.097,0 4.301,0.793 5.801,1.8008 v -7 c -1.704,-0.8985 -4.301,-1.5 -7,-1.5 -7.204,0 -12.192,3.9023 -12.192,12.0898 v 26.7891"
         style="fill:#769caa;fill-opacity:1;fill-rule:nonzero;stroke:none"
         id="path62" />
      <path
         d="m 1004.79,61.4805 h -7.196 v 6.4023 h 7.196 v 11.6797 h 7.49 V 67.8828 h 10.69 v -6.4023 h -10.69 V 35.4922 c 0,-4.2891 2.1,-6.1914 5.9,-6.1914 2.1,0 4.3,0.793 5.8,1.8008 v -7 c -1.7,-0.8985 -4.3,-1.5 -7,-1.5 -7.2,0 -12.19,3.9023 -12.19,12.0898 v 26.7891"
         style="fill:#769caa;fill-opacity:1;fill-rule:nonzero;stroke:none"
         id="path64" />
      <path
         d="m 1034.39,88.4648 h 7.49 V 62.2852 c 2.6,3.4882 7.4,6.4882 13.1,6.4882 10.09,0 15.59,-6.4882 15.59,-16.1875 v -29.082 h -7.6 v 27.8789 c 0,6.2031 -3.1,10.5 -9.79,10.5 -5.2,0 -9.7,-3.5 -11.3,-8.289 V 23.5039 h -7.49 v 64.9609"
         style="fill:#769caa;fill-opacity:1;fill-rule:nonzero;stroke:none"
         id="path66" />
      <path
         d="m 1118.37,36.793 c -1.6,-8.3985 -7.9,-14.1875 -17.89,-14.1875 -12.09,0 -20.39,9.2968 -20.39,22.9883 0,13.289 8.09,23.1796 20.19,23.1796 12.19,0 18.68,-8.8906 18.68,-21.7812 V 44.293 h -31.37 c 0.1,-9.5 5.39,-15.2891 12.89,-15.2891 5.5,0 9.6,2.7891 10.79,7.7891 z m -30.59,13.1914 h 23.6 c -0.11,6.6015 -3.61,12.3984 -11,12.3984 -6.7,0 -11.49,-4.5976 -12.6,-12.3984"
         style="fill:#769caa;fill-opacity:1;fill-rule:nonzero;stroke:none"
         id="path68" />
      <path
         d="m 1180.37,28.6992 c -2.2,-3.1914 -6.99,-6.0898 -12.49,-6.0898 -12.99,0 -19.99,10.5 -19.99,23.0781 0,12.4922 7,23.0898 19.99,23.0898 5.5,0 10.29,-2.8984 12.49,-6.0898 v 25.7813 h 7.6 V 23.4961 h -7.6 z m 0,25.9883 c -2.29,4.6016 -6.69,7.2891 -11.39,7.2891 -8.49,0 -13.49,-6.8868 -13.49,-16.2891 0,-9.3906 5,-16.2891 13.49,-16.2891 4.7,0 9.1,2.6993 11.39,7.3008 v 17.9883"
         style="fill:#769caa;fill-opacity:1;fill-rule:nonzero;stroke:none"
         id="path70" />
      <path
         d="m 1218.48,22.6055 c -12.2,0 -20.39,9.4922 -20.39,23.082 0,13.5977 8.19,23.0898 20.39,23.0898 12.09,0 20.39,-9.4921 20.39,-23.0898 0,-13.5898 -8.3,-23.082 -20.39,-23.082 m 0,39.582 c -8,0 -12.79,-6.8008 -12.79,-16.5 0,-9.6914 4.79,-16.4922 12.79,-16.4922 8,0 12.79,6.8008 12.79,16.4922 0,9.6992 -4.79,16.5 -12.79,16.5"
         style="fill:#769caa;fill-opacity:1;fill-rule:nonzero;stroke:none"
         id="path72" />
      <path
         d="m 1251.19,61.4805 h -7.2 v 6.4023 h 7.2 v 11.6797 h 7.49 V 67.8828 h 10.69 v -6.4023 h -10.69 V 35.4922 c 0,-4.2891 2.1,-6.1914 5.9,-6.1914 2.1,0 4.29,0.793 5.8,1.8008 v -7 c -1.7,-0.8985 -4.3,-1.5 -7,-1.5 -7.2,0 -12.19,3.9023 -12.19,12.0898 v 26.7891"
         style="fill:#769caa;fill-opacity:1;fill-rule:nonzero;stroke:none"
         id="path74" />
      <path
         d="m 1284.58,35.6992 c 1.41,-4.5976 5.3,-6.8008 10.5,-6.8008 5.29,0 9.09,2.1016 9.09,6.5899 0,3.1015 -1.99,5 -6.59,6.2109 l -8.8,2.2891 c -6.3,1.6015 -10.7,4.8008 -10.7,11.6914 0,7.8984 6.9,13.1016 15.89,13.1016 9.8,0 15.6,-4.8008 17.2,-12.5899 h -7.5 c -1.3,3.9883 -4.39,6.2891 -9.79,6.2891 -4.4,0 -8.5,-2.1016 -8.5,-6.4024 0,-3 2,-4.3867 6.2,-5.5898 l 8.59,-2.0977 c 7.6,-2 11.29,-6.1992 11.29,-12.4023 0,-8.3789 -6.99,-13.3789 -16.48,-13.3789 -9.7,0 -16.8,4.8906 -18.19,13.0898 h 7.79"
         style="fill:#769caa;fill-opacity:1;fill-rule:nonzero;stroke:none"
         id="path76" />
      <path
         d="m 217.047,376.125 c 81.348,0 147.539,-67.559 147.539,-150.609 0,-83.051 -66.191,-150.6097 -147.539,-150.6097 -81.352,0 -147.5392,67.5587 -147.5392,150.6097 0,83.05 66.1872,150.609 147.5392,150.609 m 0,51.91 c -110.152,0 -199.4493,-90.672 -199.4493,-202.519 0,-111.852 89.2973,-202.5199 199.4493,-202.5199 110.148,0 199.449,90.6679 199.449,202.5199 0,111.847 -89.301,202.519 -199.449,202.519"
         style="fill:#ffffff;fill-opacity:1;fill-rule:nonzero;stroke:none"
         id="path78" />
    </g>
  </g>
</svg>
