<?xml version="1.0" encoding="UTF-8" standalone="no"?>
<!-- Created with Inkscape (http://www.inkscape.org/) -->

<svg
   version="1.1"
   id="svg2"
   width="177.2"
   height="59.093334"
   viewBox="0 0 177.2 59.093334"
   sodipodi:docname="circle solutions_logo_03.eps"
   xmlns:inkscape="http://www.inkscape.org/namespaces/inkscape"
   xmlns:sodipodi="http://sodipodi.sourceforge.net/DTD/sodipodi-0.dtd"
   xmlns="http://www.w3.org/2000/svg"
   xmlns:svg="http://www.w3.org/2000/svg">
  <defs
     id="defs6" />
  <sodipodi:namedview
     id="namedview4"
     pagecolor="#ffffff"
     bordercolor="#000000"
     borderopacity="0.25"
     inkscape:showpageshadow="2"
     inkscape:pageopacity="0.0"
     inkscape:pagecheckerboard="0"
     inkscape:deskcolor="#d1d1d1" />
  <g
     id="g8"
     inkscape:groupmode="layer"
     inkscape:label="ink_ext_XXXXXX"
     transform="matrix(1.3333333,0,0,-1.3333333,0,59.093333)">
    <g
       id="g10"
       transform="scale(0.1)">
      <path
         d="m 539.918,388.703 c 24.199,0 39.211,-14.402 41.809,-35.41 h -30.411 c -0.8,5.398 -5,9.398 -11.398,9.398 -8.813,0 -14.402,-8.199 -14.402,-21 0,-12.8 5.589,-20.8 14.402,-20.8 6.398,0 10.598,3.8 11.398,9.199 h 30.411 c -2.598,-20.801 -17.61,-35.41 -41.809,-35.41 -27.012,0 -45.41,19.211 -45.41,47.011 0,27.801 18.398,47.012 45.41,47.012"
         style="fill:#769caa;fill-opacity:1;fill-rule:nonzero;stroke:none"
         id="path12" />
      <path
         d="m 609.313,394.297 c -9.614,0 -17.801,6.601 -17.801,16.808 0,10.403 8.187,17 17.801,17 9.597,0 17.796,-6.597 17.796,-17 0,-10.207 -8.199,-16.808 -17.796,-16.808 M 624.91,296.676 H 593.5 v 90.019 h 31.41 v -90.019"
         style="fill:#769caa;fill-opacity:1;fill-rule:nonzero;stroke:none"
         id="path14" />
      <path
         d="m 702.32,356.895 c -3.812,2 -8.011,2.8 -13.011,2.8 -8.598,0 -14.399,-3.812 -16,-10.199 v -52.812 h -31.411 v 90.011 h 31.411 v -7.992 c 4.402,5.992 11.402,10 20.41,10 3.992,0 7.191,-0.797 8.601,-1.598 v -30.21"
         style="fill:#769caa;fill-opacity:1;fill-rule:nonzero;stroke:none"
         id="path16" />
      <path
         d="m 754.313,388.703 c 24.199,0 39.207,-14.402 41.808,-35.41 h -30.41 c -0.801,5.398 -5,9.398 -11.398,9.398 -8.813,0 -14.403,-8.199 -14.403,-21 0,-12.8 5.59,-20.8 14.403,-20.8 6.398,0 10.597,3.8 11.398,9.199 h 30.41 c -2.601,-20.801 -17.609,-35.41 -41.808,-35.41 -27.012,0 -45.411,19.211 -45.411,47.011 0,27.801 18.399,47.012 45.411,47.012"
         style="fill:#769caa;fill-opacity:1;fill-rule:nonzero;stroke:none"
         id="path18" />
      <path
         d="m 807.898,296.684 h 31.399 V 426.711 H 807.898 V 296.684"
         style="fill:#769caa;fill-opacity:1;fill-rule:nonzero;stroke:none"
         id="path20" />
      <path
         d="m 939.516,328.086 c -3.2,-20.801 -18.809,-33.41 -42.211,-33.41 -27.598,0 -45.809,19.012 -45.809,47.012 0,27.808 19.199,47.019 45.211,47.019 27.598,0 43.211,-18.41 43.211,-45.223 v -7.796 h -58.211 c 0.988,-10.801 6.598,-16.602 15.598,-16.602 6.402,0 11.402,2.801 13.211,9 z m -57.219,23.199 h 27.211 c -0.403,7.41 -5,13.012 -12.801,13.012 -7.402,0 -12.402,-4.602 -14.41,-13.012"
         style="fill:#769caa;fill-opacity:1;fill-rule:nonzero;stroke:none"
         id="path22" />
      <path
         d="m 524.711,174.48 c 1.402,-5 5.801,-7.796 11.402,-7.796 5.2,0 9.207,2 9.207,6.199 0,3.41 -2.609,4.609 -7.007,5.597 l -17.602,3.614 c -15,3.187 -24.809,10.398 -24.809,26.199 0,19.211 17.211,30.41 38.411,30.41 24.609,0 38.007,-11.41 40.808,-29.211 h -29 c -1.008,3.801 -3.808,7.211 -11.008,7.211 -4.601,0 -8.402,-2.012 -8.402,-6.012 0,-2.8 2,-4.199 6.199,-5 l 17.813,-4.199 c 16.398,-3.801 25.199,-12.398 25.199,-27.012 0,-19.199 -17.399,-29.796 -39.41,-29.796 -23,0 -39.602,10.398 -42.41,29.796 h 30.609"
         style="fill:#769caa;fill-opacity:1;fill-rule:nonzero;stroke:none"
         id="path24" />
      <path
         d="m 630.113,144.68 c -27.211,0 -46.011,19.207 -46.011,47.008 0,27.8 18.8,47.011 46.011,47.011 27.399,0 46.02,-19.211 46.02,-47.011 0,-27.801 -18.621,-47.008 -46.02,-47.008 m 0,68.207 c -9.601,0 -15,-8.797 -15,-21.199 0,-12.399 5.399,-21 15,-21 9.797,0 15.207,8.601 15.207,21 0,12.402 -5.41,21.199 -15.207,21.199"
         style="fill:#769caa;fill-opacity:1;fill-rule:nonzero;stroke:none"
         id="path26" />
      <path
         d="m 719.707,146.684 h -31.41 v 130.027 h 31.41 V 146.684"
         style="fill:#769caa;fill-opacity:1;fill-rule:nonzero;stroke:none"
         id="path28" />
      <path
         d="m 823.316,146.68 h -31.41 v 7.8 c -4.801,-5.601 -13.801,-9.8 -24,-9.8 -19.801,0 -31.609,13.008 -31.609,33.008 v 59.011 h 31.207 V 185.09 c 0,-7.602 3.601,-13 11.601,-13 5.801,0 11.2,3.801 12.801,10 v 54.609 h 31.41 V 146.68"
         style="fill:#769caa;fill-opacity:1;fill-rule:nonzero;stroke:none"
         id="path30" />
      <path
         d="m 846.695,212.297 h -13.203 v 24.398 h 13.203 v 24.809 h 31.008 v -24.809 h 18.801 v -24.398 h -18.801 v -30.012 c 0,-7 3.402,-10 9.61,-10 3.39,0 7.191,0.801 10,2 v -26.609 c -3.61,-1.59 -10.411,-2.789 -17.411,-2.789 -21.207,0 -33.207,10 -33.207,32.797 v 34.613"
         style="fill:#769caa;fill-opacity:1;fill-rule:nonzero;stroke:none"
         id="path32" />
      <path
         d="m 927.504,244.297 c -9.609,0 -17.809,6.601 -17.809,16.808 0,10.403 8.2,17 17.809,17 9.601,0 17.801,-6.597 17.801,-17 0,-10.207 -8.2,-16.808 -17.801,-16.808 m 15.601,-97.621 h -31.41 v 90.019 h 31.41 v -90.019"
         style="fill:#769caa;fill-opacity:1;fill-rule:nonzero;stroke:none"
         id="path34" />
      <path
         d="m 1001.3,144.68 c -27.206,0 -46.007,19.207 -46.007,47.008 0,27.8 18.801,47.011 46.007,47.011 27.4,0 46.02,-19.211 46.02,-47.011 0,-27.801 -18.62,-47.008 -46.02,-47.008 m 0,68.207 c -9.597,0 -14.995,-8.797 -14.995,-21.199 0,-12.399 5.398,-21 14.995,-21 9.8,0 15.21,8.601 15.21,21 0,12.402 -5.41,21.199 -15.21,21.199"
         style="fill:#769caa;fill-opacity:1;fill-rule:nonzero;stroke:none"
         id="path36" />
      <path
         d="m 1059.49,236.699 h 31.41 v -7.801 c 5.01,5.602 13.8,9.801 24.21,9.801 20,0 31.8,-13.011 31.8,-33.011 V 146.68 h -31.21 v 51.41 c 0,7.398 -3.8,12.801 -11.8,12.801 -6.2,0 -11.4,-3.59 -13,-9.801 v -54.41 h -31.41 v 90.019"
         style="fill:#769caa;fill-opacity:1;fill-rule:nonzero;stroke:none"
         id="path38" />
      <path
         d="m 1188.7,174.48 c 1.4,-5 5.8,-7.796 11.4,-7.796 5.2,0 9.21,2 9.21,6.199 0,3.41 -2.61,4.609 -7.01,5.597 l -17.6,3.614 c -15,3.187 -24.81,10.398 -24.81,26.199 0,19.211 17.21,30.41 38.41,30.41 24.61,0 38.01,-11.41 40.81,-29.211 h -29 c -1.01,3.801 -3.81,7.211 -11.01,7.211 -4.6,0 -8.4,-2.012 -8.4,-6.012 0,-2.8 2,-4.199 6.2,-5 l 17.81,-4.199 c 16.4,-3.801 25.2,-12.398 25.2,-27.012 0,-19.199 -17.4,-29.796 -39.41,-29.796 -23,0 -39.6,10.398 -42.41,29.796 h 30.61"
         style="fill:#769caa;fill-opacity:1;fill-rule:nonzero;stroke:none"
         id="path40" />
      <path
         d="m 510.941,18.4727 c 0,-8.2891 -4.597,-12.78911 -12.886,-12.78911 -0.903,0 -2.403,0.08985 -3.192,0.40235 v 6.38676 c 0.59,-0.0899 1.7,-0.2969 2.59,-0.2969 3.899,0 6,1.7969 6,6.7969 v 48.9726 h 7.488 z m -3.796,58.0703 c -2.602,0 -4.793,2.1914 -4.793,4.7929 0,2.7071 2.191,4.8086 4.793,4.8086 2.707,0 4.898,-2.1015 4.898,-4.8086 0,-2.6015 -2.191,-4.7929 -4.898,-4.7929"
         style="fill:#769caa;fill-opacity:1;fill-rule:nonzero;stroke:none"
         id="path42" />
      <path
         d="m 559.535,23.5703 h -7.597 v 5.6016 c -2.5,-3.5 -7.192,-6.5 -12.891,-6.5 -10.102,0 -15.5,6.5 -15.5,16.1914 v 29.0781 h 7.601 V 40.0625 c 0,-6.1992 3,-10.4922 9.7,-10.4922 5.187,0 9.488,3.4922 11.09,8.3008 v 30.0703 h 7.597 V 23.5703"
         style="fill:#769caa;fill-opacity:1;fill-rule:nonzero;stroke:none"
         id="path44" />
      <path
         d="m 576.949,35.7695 c 1.41,-4.6015 5.301,-6.8007 10.5,-6.8007 5.289,0 9.09,2.1015 9.09,6.5898 0,3.1016 -1.988,5 -6.59,6.2109 l -8.801,2.2891 c -6.3,1.6016 -10.687,4.8008 -10.687,11.6914 0,7.8984 6.887,13.0977 15.879,13.0977 9.801,0 15.598,-4.7969 17.199,-12.5899 h -7.5 c -1.301,3.9922 -4.391,6.293 -9.789,6.293 -4.402,0 -8.5,-2.1016 -8.5,-6.4024 0,-3 2,-4.3906 6.199,-5.5898 l 8.59,-2.0977 c 7.602,-2 11.289,-6.2031 11.289,-12.4023 0,-8.3789 -6.988,-13.3789 -16.48,-13.3789 -9.7,0 -16.797,4.8906 -18.188,13.0898 h 7.789"
         style="fill:#769caa;fill-opacity:1;fill-rule:nonzero;stroke:none"
         id="path46" />
      <path
         d="m 616.355,61.5508 h -7.203 v 6.3984 h 7.203 v 11.6836 h 7.489 V 67.9492 h 10.691 V 61.5508 H 623.844 V 35.5625 c 0,-4.293 2.101,-6.1914 5.898,-6.1914 2.102,0 4.301,0.7891 5.801,1.8008 v -7 c -1.699,-0.9024 -4.301,-1.5 -7,-1.5 -7.199,0 -12.188,3.8984 -12.188,12.0898 v 26.7891"
         style="fill:#769caa;fill-opacity:1;fill-rule:nonzero;stroke:none"
         id="path48" />
      <path
         d="m 685.043,68.8438 c 9.992,0 16.293,-5.7891 17.781,-14.2891 h -7.691 c -1,4.8008 -4.797,7.6992 -10.09,7.6992 -7.598,0 -12.598,-6.8008 -12.598,-16.5 0,-9.6875 5,-16.4883 12.598,-16.4883 5.293,0 9.09,2.8985 10.09,7.6992 h 7.691 c -1.488,-8.5 -7.789,-14.289 -17.781,-14.289 -11.891,0 -20.188,9.289 -20.188,23.0781 0,13.793 8.297,23.0899 20.188,23.0899"
         style="fill:#769caa;fill-opacity:1;fill-rule:nonzero;stroke:none"
         id="path50" />
      <path
         d="m 729.645,22.6758 c -12.2,0 -20.391,9.4883 -20.391,23.0781 0,13.6016 8.191,23.0899 20.391,23.0899 12.089,0 20.39,-9.4883 20.39,-23.0899 0,-13.5898 -8.301,-23.0781 -20.39,-23.0781 m 0,39.5781 c -8,0 -12.79,-6.8008 -12.79,-16.5 0,-9.6914 4.79,-16.4883 12.79,-16.4883 8,0 12.789,6.7969 12.789,16.4883 0,9.6992 -4.789,16.5 -12.789,16.5"
         style="fill:#769caa;fill-opacity:1;fill-rule:nonzero;stroke:none"
         id="path52" />
      <path
         d="m 760.258,67.9453 h 7.492 v -5.5976 c 2.598,3.5 7.398,6.5 13.098,6.5 10.09,0 15.59,-6.5 15.59,-16.1914 V 23.5781 h -7.59 V 51.457 c 0,6.1993 -3.11,10.5 -9.797,10.5 -5.203,0 -9.703,-3.5 -11.301,-8.3007 V 23.5781 h -7.492 v 44.3672"
         style="fill:#769caa;fill-opacity:1;fill-rule:nonzero;stroke:none"
         id="path54" />
      <path
         d="m 809.156,67.9453 h 7.489 v -5.5976 c 2.601,3.5 7.402,6.5 13.101,6.5 10.09,0 15.59,-6.5 15.59,-16.1914 V 23.5781 h -7.602 V 51.457 c 0,6.1993 -3.097,10.5 -9.789,10.5 -5.199,0 -9.699,-3.5 -11.3,-8.3007 V 23.5781 h -7.489 v 44.3672"
         style="fill:#769caa;fill-opacity:1;fill-rule:nonzero;stroke:none"
         id="path56" />
      <path
         d="m 893.129,36.8633 c -1.598,-8.3985 -7.899,-14.1914 -17.891,-14.1914 -12.09,0 -20.386,9.3008 -20.386,22.9922 0,13.289 8.097,23.1797 20.187,23.1797 12.191,0 18.691,-8.8907 18.691,-21.7813 v -2.6992 h -31.378 c 0.097,-9.5 5.386,-15.2891 12.886,-15.2891 5.5,0 9.602,2.7891 10.793,7.7891 z m -30.59,13.1914 h 23.602 c -0.11,6.5976 -3.602,12.3984 -11,12.3984 -6.7,0 -11.493,-4.6015 -12.602,-12.3984"
         style="fill:#769caa;fill-opacity:1;fill-rule:nonzero;stroke:none"
         id="path58" />
      <path
         d="m 920.941,68.8438 c 9.993,0 16.293,-5.7891 17.782,-14.2891 h -7.692 c -1,4.8008 -4.797,7.6992 -10.09,7.6992 -7.597,0 -12.597,-6.8008 -12.597,-16.5 0,-9.6875 5,-16.4883 12.597,-16.4883 5.293,0 9.09,2.8985 10.09,7.6992 h 7.692 c -1.489,-8.5 -7.789,-14.289 -17.782,-14.289 -11.898,0 -20.199,9.289 -20.199,23.0781 0,13.793 8.301,23.0899 20.199,23.0899"
         style="fill:#769caa;fill-opacity:1;fill-rule:nonzero;stroke:none"
         id="path60" />
      <path
         d="m 950.953,61.5508 h -7.199 v 6.3984 h 7.199 v 11.6836 h 7.488 V 67.9492 h 10.692 V 61.5508 H 958.441 V 35.5625 c 0,-4.293 2.102,-6.1914 5.903,-6.1914 2.097,0 4.301,0.7891 5.801,1.8008 v -7 c -1.704,-0.9024 -4.301,-1.5 -7,-1.5 -7.204,0 -12.192,3.8984 -12.192,12.0898 v 26.7891"
         style="fill:#769caa;fill-opacity:1;fill-rule:nonzero;stroke:none"
         id="path62" />
      <path
         d="m 1004.75,61.5508 h -7.199 v 6.3984 h 7.199 v 11.6836 h 7.49 V 67.9492 h 10.69 v -6.3984 h -10.69 V 35.5625 c 0,-4.293 2.1,-6.1914 5.9,-6.1914 2.1,0 4.3,0.7891 5.8,1.8008 v -7 c -1.7,-0.9024 -4.3,-1.5 -7,-1.5 -7.2,0 -12.19,3.8984 -12.19,12.0898 v 26.7891"
         style="fill:#769caa;fill-opacity:1;fill-rule:nonzero;stroke:none"
         id="path64" />
      <path
         d="m 1034.35,88.5313 h 7.49 V 62.3516 c 2.6,3.4922 7.4,6.4922 13.1,6.4922 10.09,0 15.59,-6.4922 15.59,-16.1915 V 23.5742 h -7.6 v 27.8789 c 0,6.1992 -3.1,10.5 -9.79,10.5 -5.2,0 -9.7,-3.5 -11.3,-8.289 V 23.5742 h -7.49 v 64.9571"
         style="fill:#769caa;fill-opacity:1;fill-rule:nonzero;stroke:none"
         id="path66" />
      <path
         d="m 1118.33,36.8633 c -1.6,-8.3985 -7.9,-14.1914 -17.89,-14.1914 -12.09,0 -20.39,9.3008 -20.39,22.9922 0,13.289 8.09,23.1797 20.19,23.1797 12.19,0 18.68,-8.8907 18.68,-21.7813 v -2.6992 h -31.37 c 0.1,-9.5 5.39,-15.2891 12.89,-15.2891 5.5,0 9.6,2.7891 10.79,7.7891 z m -30.59,13.1914 h 23.6 c -0.11,6.5976 -3.61,12.3984 -11,12.3984 -6.7,0 -11.49,-4.6015 -12.6,-12.3984"
         style="fill:#769caa;fill-opacity:1;fill-rule:nonzero;stroke:none"
         id="path68" />
      <path
         d="m 1180.33,28.7656 c -2.2,-3.1875 -6.99,-6.0898 -12.49,-6.0898 -12.99,0 -19.99,10.5 -19.99,23.082 0,12.4883 7,23.0899 19.99,23.0899 5.5,0 10.29,-2.9024 12.49,-6.0899 v 25.7774 h 7.6 V 23.5664 h -7.6 z m 0,25.9922 c -2.29,4.5977 -6.69,7.2891 -11.39,7.2891 -8.49,0 -13.49,-6.8906 -13.49,-16.2891 0,-9.3906 5,-16.289 13.49,-16.289 4.7,0 9.1,2.6992 11.39,7.2968 v 17.9922"
         style="fill:#769caa;fill-opacity:1;fill-rule:nonzero;stroke:none"
         id="path70" />
      <path
         d="m 1218.43,22.6758 c -12.2,0 -20.39,9.4883 -20.39,23.0781 0,13.6016 8.19,23.0899 20.39,23.0899 12.09,0 20.39,-9.4883 20.39,-23.0899 0,-13.5898 -8.3,-23.0781 -20.39,-23.0781 m 0,39.5781 c -8,0 -12.79,-6.8008 -12.79,-16.5 0,-9.6914 4.79,-16.4883 12.79,-16.4883 8,0 12.79,6.7969 12.79,16.4883 0,9.6992 -4.79,16.5 -12.79,16.5"
         style="fill:#769caa;fill-opacity:1;fill-rule:nonzero;stroke:none"
         id="path72" />
      <path
         d="m 1251.15,61.5508 h -7.2 v 6.3984 h 7.2 v 11.6836 h 7.49 V 67.9492 h 10.69 v -6.3984 h -10.69 V 35.5625 c 0,-4.293 2.1,-6.1914 5.9,-6.1914 2.1,0 4.29,0.7891 5.8,1.8008 v -7 c -1.7,-0.9024 -4.3,-1.5 -7,-1.5 -7.2,0 -12.19,3.8984 -12.19,12.0898 v 26.7891"
         style="fill:#769caa;fill-opacity:1;fill-rule:nonzero;stroke:none"
         id="path74" />
      <path
         d="m 1284.54,35.7695 c 1.41,-4.6015 5.3,-6.8007 10.5,-6.8007 5.29,0 9.09,2.1015 9.09,6.5898 0,3.1016 -1.99,5 -6.59,6.2109 l -8.8,2.2891 c -6.3,1.6016 -10.7,4.8008 -10.7,11.6914 0,7.8984 6.9,13.0977 15.89,13.0977 9.8,0 15.6,-4.7969 17.2,-12.5899 h -7.5 c -1.3,3.9922 -4.39,6.293 -9.79,6.293 -4.4,0 -8.5,-2.1016 -8.5,-6.4024 0,-3 2,-4.3906 6.2,-5.5898 l 8.59,-2.0977 c 7.6,-2 11.29,-6.2031 11.29,-12.4023 0,-8.3789 -6.99,-13.3789 -16.48,-13.3789 -9.7,0 -16.8,4.8906 -18.19,13.0898 h 7.79"
         style="fill:#769caa;fill-opacity:1;fill-rule:nonzero;stroke:none"
         id="path76" />
      <path
         d="m 217.004,376.195 c 81.348,0 147.539,-67.562 147.539,-150.609 0,-83.051 -66.191,-150.6133 -147.539,-150.6133 -81.352,0 -147.5392,67.5623 -147.5392,150.6133 0,83.047 66.1872,150.609 147.5392,150.609 m 0,51.91 c -110.152,0 -199.4493,-90.671 -199.4493,-202.519 0,-111.852 89.2973,-202.5235 199.4493,-202.5235 110.148,0 199.449,90.6715 199.449,202.5235 0,111.848 -89.301,202.519 -199.449,202.519"
         style="fill:#e0f5fb;fill-opacity:1;fill-rule:nonzero;stroke:none"
         id="path78" />
    </g>
  </g>
</svg>
