<svg xmlns="http://www.w3.org/2000/svg" width="32" height="32" viewBox="0 0 32 32" fill="none">
<path d="M7.76562 4.84272L16.0003 13.0774L24.1923 4.88539C24.3732 4.69279 24.5912 4.53871 24.8332 4.4324C25.0751 4.32609 25.336 4.26974 25.6003 4.26672C26.1661 4.26672 26.7087 4.49148 27.1088 4.89156C27.5089 5.29164 27.7336 5.83426 27.7336 6.40006C27.7386 6.66161 27.6901 6.92142 27.591 7.16354C27.492 7.40566 27.3445 7.62499 27.1576 7.80806L18.8589 16.0001L27.1576 24.2987C27.5092 24.6427 27.7154 25.1085 27.7336 25.6001C27.7336 26.1659 27.5089 26.7085 27.1088 27.1086C26.7087 27.5086 26.1661 27.7334 25.6003 27.7334C25.3284 27.7447 25.0571 27.6993 24.8037 27.6001C24.5503 27.501 24.3203 27.3502 24.1283 27.1574L16.0003 18.9227L7.78695 27.1361C7.60669 27.3222 7.39135 27.4709 7.15335 27.5734C6.91535 27.6759 6.65941 27.7303 6.40028 27.7334C5.83449 27.7334 5.29186 27.5086 4.89179 27.1086C4.49171 26.7085 4.26695 26.1659 4.26695 25.6001C4.26197 25.3385 4.3105 25.0787 4.40955 24.8366C4.5086 24.5945 4.65608 24.3751 4.84295 24.1921L13.1416 16.0001L4.84295 7.70139C4.49134 7.35741 4.28517 6.8916 4.26695 6.40006C4.26695 5.83426 4.49171 5.29164 4.89179 4.89156C5.29186 4.49148 5.83449 4.26672 6.40028 4.26672C6.91228 4.27312 7.40295 4.48006 7.76562 4.84272Z" fill="#799DAB"/>
</svg>