<svg xmlns="http://www.w3.org/2000/svg" width="16" height="15" viewBox="0 0 16 15" fill="none">
<g clip-path="url(#clip0_737_2453)">
<path d="M0.844805 3.19918C0.935541 2.8016 1.15859 2.44661 1.47743 2.19236C1.79627 1.93811 2.192 1.79966 2.5998 1.79968H13.3998C13.8076 1.79966 14.2033 1.93811 14.5222 2.19236C14.841 2.44661 15.0641 2.8016 15.1548 3.19918L7.9998 7.57228L0.844805 3.19918ZM0.799805 4.22698V10.6206L6.0225 7.41838L0.799805 4.22698ZM6.88471 7.94668L0.971705 11.571C1.1178 11.879 1.34838 12.1393 1.63661 12.3214C1.92484 12.5035 2.25886 12.6 2.5998 12.5997H13.3998C13.7407 12.5998 14.0746 12.503 14.3627 12.3208C14.6507 12.1385 14.8811 11.8782 15.027 11.5701L9.11401 7.94578L7.9998 8.62708L6.88471 7.94578V7.94668ZM9.9771 7.41928L15.1998 10.6206V4.22698L9.9771 7.41838V7.41928Z" fill="#799DAB"/>
</g>
<defs>
<clipPath id="clip0_737_2453">
<rect width="14.4" height="14.4" fill="white" transform="translate(0.799805 -6.10352e-05)"/>
</clipPath>
</defs>
</svg>