<svg width="42" height="42" viewBox="0 0 42 42" fill="none" xmlns="http://www.w3.org/2000/svg">
<circle cx="21.2318" cy="14.5808" r="5.33333" stroke="#799DAB" stroke-width="3" stroke-linecap="round"/>
<path d="M26.6341 14.4767C27.1148 13.6441 27.9066 13.0365 28.8352 12.7877C29.7639 12.5389 30.7533 12.6691 31.5859 13.1498C32.4185 13.6305 33.0261 14.4223 33.2749 15.351C33.5237 16.2796 33.3935 17.2691 32.9128 18.1017C32.4321 18.9343 31.6403 19.5418 30.7117 19.7907C29.783 20.0395 28.7935 19.9092 27.9609 19.4285C27.1283 18.9478 26.5208 18.1561 26.272 17.2274C26.0231 16.2988 26.1534 15.3093 26.6341 14.4767L26.6341 14.4767Z" stroke="#799DAB" stroke-width="3"/>
<path d="M9.5506 14.4767C10.0313 13.6441 10.8231 13.0365 11.7517 12.7877C12.6804 12.5389 13.6698 12.6691 14.5024 13.1498C15.335 13.6305 15.9426 14.4223 16.1914 15.351C16.4403 16.2796 16.31 17.2691 15.8293 18.1017C15.3486 18.9343 14.5568 19.5418 13.6282 19.7907C12.6995 20.0395 11.71 19.9092 10.8774 19.4285C10.0448 18.9478 9.43729 18.1561 9.18846 17.2274C8.93963 16.2988 9.06989 15.3093 9.5506 14.4767L9.5506 14.4767Z" stroke="#799DAB" stroke-width="3"/>
<path d="M29.5713 31.6642L28.1008 31.9604L28.3433 33.1642H29.5713V31.6642ZM36.3697 30.5587L34.9232 30.956V30.956L36.3697 30.5587ZM25.9824 26.0447L25.0751 24.8502L23.3403 26.1679L25.1902 27.3184L25.9824 26.0447ZM35.4741 30.1642H29.5713V33.1642H35.4741V30.1642ZM34.9232 30.956C34.8673 30.7524 34.9232 30.5278 35.0513 30.3729C35.1705 30.2288 35.3323 30.1642 35.4741 30.1642V33.1642C36.9329 33.1642 38.2718 31.8206 37.8161 30.1615L34.9232 30.956ZM29.7735 26.3309C31.5075 26.3309 32.6265 27.0433 33.4068 27.9488C34.2278 28.9014 34.6864 30.0938 34.9232 30.956L37.8161 30.1615C37.5217 29.0897 36.9099 27.4181 35.6794 25.9903C34.4083 24.5154 32.4948 23.3309 29.7735 23.3309V26.3309ZM26.8897 27.2392C27.5822 26.7132 28.5007 26.3309 29.7735 26.3309V23.3309C27.8349 23.3309 26.2811 23.9342 25.0751 24.8502L26.8897 27.2392ZM25.1902 27.3184C27.0372 28.4672 27.7986 30.46 28.1008 31.9604L31.0418 31.3681C30.674 29.5419 29.6556 26.5628 26.7746 24.771L25.1902 27.3184Z" fill="#799DAB"/>
<path d="M16.4816 26.0448L17.2738 27.3185L19.1236 26.168L17.3889 24.8503L16.4816 26.0448ZM6.09418 30.5587L7.54062 30.956L6.09418 30.5587ZM12.8928 31.6642V33.1642H14.1208L14.3633 31.9604L12.8928 31.6642ZM12.6903 26.3309C13.9633 26.3309 14.8818 26.7133 15.5742 27.2393L17.3889 24.8503C16.1829 23.9343 14.6291 23.3309 12.6903 23.3309V26.3309ZM7.54062 30.956C7.77742 30.0938 8.23604 28.9014 9.05702 27.9488C9.8374 27.0433 10.9564 26.3309 12.6903 26.3309V23.3309C9.96908 23.3309 8.05561 24.5154 6.7845 25.9903C5.554 27.4181 4.94212 29.0896 4.64775 30.1614L7.54062 30.956ZM6.98977 30.1642C7.13154 30.1642 7.29329 30.2288 7.41254 30.3729C7.54062 30.5278 7.59655 30.7524 7.54062 30.956L4.64775 30.1614C4.19206 31.8205 5.53093 33.1642 6.98977 33.1642V30.1642ZM12.8928 30.1642H6.98977V33.1642H12.8928V30.1642ZM14.3633 31.9604C14.6655 30.46 15.4268 28.4673 17.2738 27.3185L15.6893 24.7711C12.8085 26.5629 11.7901 29.5419 11.4223 31.3681L14.3633 31.9604Z" fill="#799DAB"/>
<path d="M21.2316 24.8309C27.9577 24.8309 29.3874 30.1273 29.6913 32.3789C29.7651 32.9262 29.3256 33.3725 28.7733 33.3725H13.6899C13.1377 33.3725 12.6981 32.9262 12.772 32.3789C13.0758 30.1273 14.5055 24.8309 21.2316 24.8309Z" stroke="#799DAB" stroke-width="3" stroke-linecap="round"/>
</svg>
