<?xml version="1.0" encoding="UTF-8"?>
<svg id="Layer_2" data-name="Layer 2" xmlns="http://www.w3.org/2000/svg" viewBox="0 0 1414.8 2081.1">
  <defs>
    <style>
      .cls-1 {
        fill: #DDF2F9;
        fill-rule: evenodd;
        opacity: .7;
      }
    </style>
  </defs>
  <g id="Layer_1-2" data-name="Layer 1">
    <g id="Page_1" data-name="Page 1">
      <path id="Path_2" data-name="Path 2" class="cls-1" d="M707.8,0c-22.5,0-40.7,18.2-40.7,40.7,0,2.67,.27,5.23,.8,7.7L243.8,189.6c-6.5-13.6-20.5-23-36.6-23-22.4,0-40.6,18.3-40.6,40.7,0,9.4,3.1,17.9,8.4,24.8l-109.6,109.7c-6.9-5.3-15.4-8.5-24.8-8.5-22.4,0-40.6,18.2-40.6,40.7,0,20.6,15.4,37.7,35.4,40.3V1000.3c-20,2.5-35.4,19.6-35.4,40.3,0,22.4,18.2,40.7,40.6,40.7,9.4,0,18-3.2,24.8-8.5l109.6,109.6c-5.3,6.9-8.5,15.5-8.5,24.8,0,14.1,7.2,26.5,18,33.8L54,1502.1c-4.2-1.4-8.7-2.2-13.4-2.2-22.4,0-40.6,18.2-40.6,40.7s18.2,40.6,40.6,40.6c4.7,0,9.2-.8,13.4-2.2l130.4,261.1c-10.7,7.3-17.9,19.7-17.9,33.8,0,22.4,18.2,40.6,40.7,40.6,14.1,0,26.5-7.2,33.8-18l261.7,130.1c-1.4,4.2-2.2,8.6-2.2,13.3,0,22.5,18.2,40.7,40.6,40.7,20.7,0,37.8-15.4,40.4-35.4l585.7,.5c2.5,20,19.6,35.4,40.3,35.4,22.4,0,40.6-18.2,40.6-40.6,0-20.7-15.4-37.7-35.4-40.3v-252.7c20-2.6,35.4-19.6,35.4-40.3,0-16.1-9.3-30-22.9-36.6l141.2-423.5c2.5,.6,5.1,.8,7.7,.8,22.5,0,40.7-18.2,40.7-40.7s-18.2-40.6-40.7-40.6c-4.5,0-8.9,.7-13,2.1l-128.1-260.9c11-7.2,18.2-19.7,18.2-33.9,0-16.3-9.6-30.4-23.5-36.9l133.7-423c2.33,.4,4.73,.6,7.2,.6,22.4,0,40.7-18.2,40.7-40.6s-18.3-40.7-40.7-40.7c-14,0-26.3,7.1-33.7,17.8l-255.9-129.1c1.8-4.5,2.8-9.5,2.8-14.7,0-22.4-18.2-40.7-40.7-40.7-14.4,0-27.2,7.6-34.3,19L746.2,54.1c1.5-4.2,2.3-8.7,2.3-13.4C748.5,18.2,730.3,0,707.8,0h0Zm0,2c21.3,0,38.7,17.4,38.7,38.7,0,4.4-.8,8.7-2.2,12.8l-.6,1.6,1.6,.8,260.6,131.5,1.6,.8,.9-1.6c7.2-11.2,19.4-18,32.7-18,21.3,0,38.7,17.4,38.7,38.7,0,4.9-.9,9.6-2.6,14l-.7,1.7,1.6,.8,255.9,129.1,1.6,.8,1-1.5c7.2-10.6,19.2-16.9,32-16.9,21.3,0,38.7,17.4,38.7,38.7s-17.4,38.6-38.7,38.6c-2.3,0-4.6-.2-6.8-.6l-1.8-.3-.5,1.7-133.7,423-.5,1.7,1.6,.8c13.5,6.3,22.3,20.1,22.3,35,0,13-6.5,25.1-17.3,32.2l-1.4,1,.7,1.6,128.1,260.9,.8,1.6,1.6-.6c4-1.3,8.2-2,12.4-2,21.4,0,38.7,17.3,38.7,38.6s-17.3,38.7-38.7,38.7c-2.5,0-5-.2-7.3-.7l-1.8-.4-.5,1.7-141.2,423.4-.5,1.7,1.6,.8c13.4,6.5,21.7,19.9,21.7,34.8,0,19.4-14.4,35.9-33.6,38.3l-1.8,.3v256.1l1.8,.3c19.2,2.4,33.6,18.9,33.6,38.3,0,21.3-17.3,38.6-38.6,38.6-19.4,0-35.9-14.4-38.3-33.6l-.3-1.8h-1.7l-585.7-.5h-1.8l-.2,1.7c-2.5,19.2-19,33.7-38.4,33.7-21.3,0-38.6-17.4-38.6-38.7,0-4.3,.7-8.5,2.1-12.6l.6-1.7-1.6-.8-261.7-130.1-1.6-.8-1,1.5c-7.2,10.7-19.2,17.1-32.1,17.1-21.3,0-38.7-17.3-38.7-38.6,0-12.9,6.4-24.9,17.1-32.1l1.4-1-.8-1.6L55.7,1578.1l-.7-1.6-1.7,.6c-4,1.4-8.3,2.1-12.7,2.1-21.3,0-38.6-17.3-38.6-38.6s17.3-38.7,38.6-38.7c4.4,0,8.7,.7,12.7,2.1l1.7,.6,.7-1.6,130.6-261.1,.7-1.6-1.4-1c-10.7-7.2-17.1-19.2-17.1-32.1,0-8.6,2.8-16.8,8.1-23.6l1-1.4-1.2-1.2-109.6-109.6-1.2-1.2-1.4,1c-6.8,5.3-15,8.1-23.6,8.1-21.3,0-38.6-17.4-38.6-38.7,0-19.4,14.4-35.9,33.6-38.4l1.8-.2V412.5l-1.8-.2c-19.2-2.5-33.6-18.9-33.6-38.3,0-21.3,17.3-38.7,38.6-38.7,8.6,0,16.8,2.8,23.6,8l1.4,1.1,1.2-1.2,109.6-109.7,1.3-1.2-1.1-1.4c-5.2-6.8-8-15-8-23.6,0-21.3,17.3-38.7,38.6-38.7,14.8,0,28.4,8.6,34.8,21.9l.8,1.6,1.7-.6L668.5,50.3l1.7-.5-.3-1.8c-.5-2.3-.8-4.8-.8-7.3,0-21.3,17.4-38.7,38.7-38.7h0Zm-199.7,351.8l.9-1.4c7.3-10.7,19.3-17.1,32.1-17.1,4.4,0,8.7,.7,12.7,2.2l1.7,.5,.8-1.5L686.9,75.3l.8-1.6-1.5-1c-5.7-3.8-10.2-9-13.2-15.2l-.8-1.6-1.6,.6L246.5,197.7l-1.6,.5,.3,1.7c.5,2.4,.7,4.9,.7,7.4,0,4.4-.7,8.6-2.1,12.7l-.6,1.6,1.6,.8,261.7,130.6,1.6,.8Zm514.4,152.9l1.5-.7c3.8-1.9,7.9-3.2,12.1-3.7l1.8-.2V245.9l-1.8-.2c-19.1-2.5-33.6-19-33.6-38.4,0-3.9,.6-7.8,1.8-11.6l.5-1.6-1.5-.8L742.4,61.8l-1.5-.8-1,1.4c-1.9,2.8-4.1,5.3-6.6,7.4l-1.4,1.2,1,1.4,288.6,432.9,1,1.4Zm-16.9,18.6l.8-1.6c2.2-4.7,5.4-8.8,9.4-12.3l1.3-1.1-1-1.5L727.5,76l-.9-1.5-1.6,.8c-3.9,1.9-7.9,3.1-12.1,3.6l-1.8,.3V427.1l1.4,.5,291.4,97.1,1.7,.6Zm-301-100.3V79.2l-1.7-.2c-2.7-.4-5.3-1-7.7-1.8l-1.6-.6-.8,1.6-130.6,261.1-.8,1.6,1.5,1c10.6,7.2,17,19.2,17,32.1,0,2.5-.2,5-.7,7.3l-.4,1.8,1.7,.5,121.5,40.5,2.6,.9Zm336.6-185.5c1.87,0,3.73-.17,5.6-.5,7.5-1.3,14.4-5.3,19.2-11.3,2.4-2.9,4.3-6.2,5.5-9.8,1.2-3.3,1.8-6.9,1.8-10.6,0-17.7-14.4-32.1-32.1-32.1-10.6,0-20.6,5.2-26.6,14-2.1,3.1-3.7,6.6-4.6,10.2-.7,2.6-1,5.3-1,7.9,0,15.7,11.2,29,26.5,31.7,1.87,.33,3.77,.5,5.7,.5h0Zm-833.9,0c3.1,0,6.2-.4,9.2-1.3,3.6-1.1,6.9-2.8,10-5,2.5-1.9,4.7-4.2,6.6-6.7,2.3-3.1,4-6.5,5-10,.9-2.9,1.4-6,1.4-9.2,0-1.53-.13-3.07-.4-4.6-.5-3.8-1.7-7.4-3.5-10.7-5.7-10.4-16.5-16.8-28.3-16.8-17.7,0-32.2,14.4-32.2,32.1,0,6.7,2.1,13.1,5.9,18.4,2.1,3.1,4.8,5.9,7.9,8,5.4,3.8,11.8,5.8,18.4,5.8h0Zm152.3,265.2l1.6-.6c4.1-1.4,8.4-2.1,12.7-2.1,8.7,0,16.9,2.8,23.7,8l1.4,1.1,1.2-1.2,110.1-109.7,1.3-1.3-1.1-1.4c-5.2-6.8-8-14.9-8-23.5,0-4.4,.8-8.6,2.2-12.7l.6-1.6-1.6-.8L242,228.3l-1.6-.8-1,1.4c-2.8,4.1-6.4,7.8-10.5,10.5l-1.5,1,.8,1.6,130.6,261.1,.8,1.6Zm714.5,15.6l1.6-.8,255.5-130.1,1.6-.8-.6-1.6c-1.5-4.2-2.2-8.5-2.2-13s.7-8.7,2.2-12.8l.6-1.6-1.6-.8-256.2-129.3-1.5-.7-1,1.3c-6.3,8.6-15.9,14.3-26.3,15.6l-1.8,.2V502.1l1.8,.2c10.8,1.4,20.7,7.4,26.9,16.5l1,1.5ZM198.2,836.4l1.7-.3c2.4-.5,4.9-.7,7.4-.7,4.4,0,8.6,.7,12.7,2.1l1.6,.6,.8-1.6,130.6-261.2,.8-1.5-1.5-1c-10.7-7.2-17-19.2-17-32.1s6.3-24.8,17-32l.9-.7v-1.5l-.2-.4L222.4,244.9l-.7-1.5-1.7,.6c-4,1.4-8.3,2.1-12.7,2.1-8.6,0-16.7-2.8-23.5-8l-1.4-1.1-1.3,1.2-109.6,109.7-1.2,1.2,1,1.4c5.3,6.8,8.1,15,8.1,23.6,0,14.9-8.4,28.2-21.8,34.8l-1.6,.7,.5,1.7,141.1,423.4,.6,1.7ZM1368.7,406.3c17.7,0,32.2-14.5,32.2-32.2s-14.5-32.1-32.2-32.1c-10.1,0-19.7,4.8-25.7,12.9-2.3,3-4,6.4-5.1,10-.9,2.9-1.3,6-1.3,9.2s.4,6.3,1.3,9.4c1.2,3.6,2.9,7,5.2,10,2.8,3.8,6.5,6.9,10.7,9.1,3.4,1.8,7,2.9,10.7,3.4,1.3,.2,2.7,.3,4.2,.3h0Zm-827.4,0c11.8,0,22.6-6.5,28.2-16.9,1.9-3.4,3.1-6.9,3.6-10.6,.2-1.53,.3-3.1,.3-4.7,0-10.2-4.7-19.6-13-25.8-3-2.2-6.3-3.9-10-5-2.9-.9-6-1.3-9.1-1.3-10.1,0-19.8,4.8-25.8,13-2.3,3-4,6.4-5.1,10-.8,2.9-1.3,6-1.3,9.1,0,6.6,2,13,5.8,18.4,2.1,3,4.8,5.7,7.9,7.9,5.4,3.8,11.8,5.9,18.5,5.9h0Zm-500.6,0c5.4,0,10.7-1.4,15.4-3.9,10.4-5.7,16.8-16.5,16.8-28.3,0-6.6-2-13-5.8-18.4-2.2-3.1-4.9-5.8-7.9-7.9-5.4-3.8-11.8-5.8-18.5-5.8-1.53,0-3.1,.1-4.7,.3l-.8,.2c-15.4,2.7-26.6,16-26.6,31.6s11.2,29,26.5,31.7c1.87,.33,3.73,.5,5.6,.5h0Zm500.6,6.5c-8.7,0-16.9-2.8-23.7-8.1l-1.4-1.1-1.2,1.3-110.1,109.7-1.3,1.2,1.1,1.4c5.2,6.8,8,14.9,8,23.6,0,4.4-.8,8.7-2.2,12.7l-.6,1.7,1.6,.8,261.8,131.7,1.6,.8,1-1.5c6.2-9.2,16.1-15.2,27-16.6l1.8-.3v-238.1l-1.4-.5-124.8-41.5-1.6-.6-.8,1.6c-6.5,13.4-19.9,21.8-34.8,21.8h0Zm654.8,425.4l1.6-.6c4.1-1.5,8.5-2.2,13-2.2,2.2,0,4.5,.2,6.8,.6l1.7,.3,.5-1.7,133.8-423,.5-1.7-1.6-.7c-6.3-3-11.7-7.5-15.6-13.2l-1-1.5-1.6,.8-255.5,130.1-1.6,.7,.6,1.7c1.5,4.1,2.2,8.5,2.2,13,0,12.7-6.3,24.7-16.8,31.9l-1.5,1,.8,1.5,132.9,261.4,.8,1.6ZM65.7,1011.2l1.3-1.3,109.5-109.6,1.3-1.2-1.1-1.4c-5.3-6.8-8-15-8-23.6,0-14.9,8.3-28.3,21.8-34.8l1.5-.8-.5-1.7L50.4,413.4l-.5-1.6-1.8,.3c-.87,.2-1.63,.33-2.3,.4l-1.8,.1V1002.2l1.7,.2c6.8,.9,13.2,3.5,18.6,7.7l1.4,1.1Zm783.8-166.6l1.4-1.1c6.8-5.3,15-8.1,23.7-8.1,4.4,0,8.6,.8,12.7,2.2l1.7,.6,.7-1.6,130.6-261.2,.8-1.5-1.5-1c-10.6-7.2-17-19.2-17-32.1,0-2.5,.2-5,.7-7.3l.4-1.8-1.7-.5-288.2-96.1-2.6-.9v236l1.7,.2c19.2,2.5,33.7,19,33.7,38.3,0,8.6-2.7,16.7-7.9,23.5l-1.1,1.4,1.3,1.2,109.4,108.6,1.2,1.2Zm174.7-276.5c.13,.07,.27,.13,.4,.2,.6,.4,1.27,.77,2,1.1,.07,.07,.13,.1,.2,.1l.1,.1c.6,.3,1.2,.6,1.9,.8h0v.1h.1l.9,.3c.73,.33,1.47,.6,2.2,.8l.3,.1c2.9,.8,5.9,1.2,8.9,1.2,3.2,0,6.3-.4,9.4-1.3,3.6-1.2,7-2.9,9.9-5.2,8.1-6,12.9-15.6,12.9-25.6,0-3.2-.5-6.3-1.4-9.4-1.2-3.6-2.9-7-5.1-10-5-6.5-12.1-10.9-20.1-12.3-1.87-.33-3.73-.5-5.6-.5s-3.8,.2-5.6,.5c-2.5,.4-4.9,1.2-7.3,2.2-3.4,1.5-6.5,3.6-9.3,6.2-2.4,2.3-4.4,4.9-6.1,7.9-1.8,3.4-3,7-3.5,10.7-.27,1.53-.4,3.1-.4,4.7,0,10.1,4.9,19.7,13,25.8,.73,.53,1.47,1.03,2.2,1.5h0Zm-650.2,4.8c10.2,0,19.6-4.7,25.7-12.9l.4-.5v-.1c2.1-2.9,3.7-6.1,4.6-9.4,.9-2.9,1.4-6,1.4-9.2,0-6.6-2-13-5.8-18.4-2.2-3.1-4.8-5.8-7.9-7.9-5.4-3.8-11.8-5.9-18.4-5.9-3.2,0-6.3,.5-9.2,1.3-3.7,1.1-7,2.8-10,5.1-8.2,6-13,15.7-13,25.8s4.8,19.7,13,25.8c3,2.2,6.3,3.9,10,5,3,.9,6,1.3,9.2,1.3h0Zm0,6.5c-4.4,0-8.7-.7-12.7-2.1l-1.7-.6-.8,1.6-130.5,261.1-.8,1.6,1.4,1c5.7,3.8,10.3,9.1,13.3,15.3l.7,1.6,1.7-.6,424-140,1.7-.6-.4-1.7c-.4-2.4-.7-4.8-.7-7.3,0-4.4,.8-8.7,2.2-12.7l.6-1.7-1.6-.8-261.9-131.7-1.5-.8-1,1.5c-7.3,10.6-19.2,16.9-32,16.9h0Zm667.2,0c-4.4,0-8.6-.7-12.7-2.1l-1.6-.6-.8,1.6-130.6,261.1-.8,1.6,1.5,1c10.6,7.2,17,19.2,17,32.1,0,8.6-2.8,16.7-8,23.5l-1.1,1.4,1.3,1.3,109.6,109.6,1.2,1.3,1.4-1.1c6.8-5.3,15-8,23.6-8s17,2.8,23.8,8.2l1.4,1,1.3-1.2,111.9-110.1,1.3-1.2-1.1-1.4c-5.1-6.7-7.8-14.8-7.8-23.3,0-12.8,6.3-24.7,16.8-32l1.4-1-.8-1.5-132.8-261.4-.8-1.6-1.7,.6c-4.1,1.5-8.4,2.2-12.9,2.2h0Zm-358.5,109.3l-.6,.8c-2.2,3-3.9,6.3-5,10-.9,2.9-1.4,6-1.4,9.2,0,1.6,.1,3.1,.4,4.6,.5,3.7,1.7,7.3,3.5,10.7,2.2,4.1,5.3,7.6,9,10.5,.4,.27,.87,.57,1.4,.9,.33,.27,.7,.53,1.1,.8,.67,.4,1.3,.73,1.9,1,.5,.3,1.1,.6,1.7,.8,.67,.33,1.37,.63,2.1,.9l.4,.1c.27,.13,.57,.27,.9,.4h.3l.3,.1c3,.9,6.1,1.4,9.2,1.4,6.7,0,13.1-2.1,18.4-5.9,.13-.07,.27-.13,.4-.2,.53-.4,1.07-.83,1.6-1.3,1-.8,1.83-1.57,2.5-2.3,.6-.6,1.1-1.1,1.5-1.6l.2-.2,.2-.2c.07-.07,.1-.13,.1-.2l.1-.1c.07-.13,.17-.27,.3-.4,.27-.33,.53-.7,.8-1.1,.13-.2,.23-.33,.3-.4,3.8-5.4,5.7-11.7,5.7-18.3,0-15.6-11.1-29-26.5-31.7-1.87-.33-3.73-.5-5.6-.5s-3.8,.2-5.6,.6c-7.7,1.3-14.6,5.4-19.6,11.6h0Zm-174.6,331.9l1-1.5c7.3-10.7,19.3-17,32.1-17,4.5,0,8.7,.7,12.8,2.1l1.6,.6,.8-1.6,130.5-259.9,.8-1.6-1.5-1c-5.6-3.8-10.2-9.1-13.2-15.2l-.7-1.6-1.7,.5-424,140.1-1.7,.6,.4,1.7c.4,2.3,.7,4.8,.7,7.3,0,4.3-.8,8.6-2.2,12.6l-.5,1.7,1.5,.8,261.8,130.6,1.5,.8Zm199.7-273.2c-4.3,0-8.6-.7-12.7-2.2l-1.6-.5-.8,1.5-130.5,260-.8,1.5,1.4,1c4.1,2.8,7.7,6.4,10.4,10.4l1,1.5,1.6-.8,261.2-130.6,1.5-.8-.6-1.6c-1.4-4.1-2.1-8.3-2.1-12.7,0-8.6,2.8-16.7,7.9-23.5l1.1-1.4-1.2-1.2-109.4-108.6-1.3-1.2-1.4,1.1c-6.8,5.3-15,8.1-23.7,8.1h0Zm493.2,96h-.2l-.2,.1c-.33,.13-.7,.27-1.1,.4l-.4,.2c-.33,.07-.6,.17-.8,.3-.13,0-.23,.03-.3,.1-.6,.3-1.3,.6-2,.9-.9,.5-1.7,.9-2.5,1.5l-.9,.6c-.5,.3-.9,.6-1.4,.9-8.1,6.2-12.8,15.5-12.8,25.7,0,6.6,2,12.9,5.7,18.2,2.1,3.1,4.7,5.8,7.8,8,5.5,3.9,11.9,6,18.7,6,3,0,6-.5,8.9-1.3,3.6-1,7-2.7,10-5,8.3-6,13.2-15.7,13.2-25.9,0-12-6.6-22.9-17.2-28.5-3.3-1.7-6.9-2.9-10.7-3.4-1.3-.2-2.7-.3-4.2-.3-3.2,0-6.4,.5-9.4,1.4l-.2,.1Zm-345,4.4c-.4,.27-.8,.57-1.2,.9-.4,.27-.77,.57-1.1,.9-.6,.53-1.23,1.1-1.9,1.7l-.1,.1s0,0,0,0l-.1,.2-.2,.1-.4,.4c-.4,.47-.8,.97-1.2,1.5-.5,.5-1,1.1-1.5,1.8l-.6,.4v.5c-3.6,5.3-5.4,11.5-5.4,17.9,0,3.1,.4,6.2,1.3,9.1,1.1,3.6,2.8,7,5,10,6.1,8.1,15.7,13,25.8,13,6.7,0,13-2,18.5-5.8,3.1-2.2,5.7-4.9,7.9-7.9,3.8-5.5,5.8-11.8,5.8-18.4,0-10.3-4.7-19.7-13-25.9l-.3-.2c-.33-.2-.63-.4-.9-.6-.5-.3-.9-.6-1.3-.8-.47-.33-1.03-.67-1.7-1-.2-.13-.43-.27-.7-.4h-.2c-.5-.3-1-.6-1.6-.8-.4-.13-.8-.27-1.2-.4-.13-.07-.27-.13-.4-.2-.33-.13-.67-.27-1-.4l-.3-.1h-.2c-.1,0-.2-.1-.2-.1-3-.9-6-1.3-9.2-1.3-6.6,0-13,2-18.4,5.8h0Zm-648.8,58.5c10.1,0,19.8-4.9,25.8-13,.27-.4,.53-.8,.8-1.2,.6-.7,1-1.5,1.5-2.3,.2-.33,.37-.67,.5-1l.1-.2c.2-.4,.4-.8,.6-1.3,.07-.07,.1-.17,.1-.3,.07-.13,.13-.27,.2-.4,.2-.4,.37-.8,.5-1.2,.13-.27,.23-.57,.3-.9l.1-.2v-.2l.1-.2v-.1c.07-.07,.1-.13,.1-.2,0-.1,.1-.2,.1-.3,.9-3,1.3-6,1.3-9.1,0-1.6-.1-3.17-.3-4.7l-.1-.5c0-.13-.03-.27-.1-.4v-.5c-.13-.67-.3-1.33-.5-2v-.1l-.1-.2v-.2c-.2-.67-.4-1.33-.6-2l-.2-.3v-.2c-.2-.6-.5-1.3-.9-2v-.1c-.07-.13-.1-.23-.1-.3-.2-.47-.43-.9-.7-1.3v-.4l-.4-.3c-2.1-4-5.2-7.6-8.9-10.4-3-2.2-6.4-3.9-10.1-5-2.9-.9-6-1.3-9.1-1.3-1.6,0-3.17,.1-4.7,.3-3.7,.6-7.3,1.8-10.6,3.6-10.4,5.6-16.9,16.5-16.9,28.3,0,6.6,2.1,13,5.9,18.3,2.1,3.1,4.8,5.8,7.9,8,5.4,3.8,11.8,5.8,18.4,5.8h0Zm0,6.5c-8.6,0-16.8-2.8-23.6-8l-1.4-1.1-1.2,1.3-109.6,109.6-1.2,1.2,1.1,1.4c5.2,6.8,8,15,8,23.6s-2.8,16.8-8.1,23.6l-1,1.4,1.2,1.2,109.6,109.6,1.2,1.3,1.4-1.1c6.8-5.3,15-8,23.6-8,12.9,0,24.9,6.4,32.1,17.1l.9,1.4,1.6-.8,261.8-130.6,1.6-.8-.6-1.6c-1.4-4.1-2.1-8.3-2.1-12.7s.7-8.6,2.1-12.6l.6-1.7-1.6-.8-261.8-130.6-1.6-.8-.9,1.4c-7.2,10.7-19.2,17.1-32.1,17.1h0Zm642.3,431.7l1.4-1c6.8-5.3,14.9-8.1,23.5-8.1,4.4,0,8.7,.7,12.7,2.2l1.7,.5,.8-1.5,130.6-261.2,.7-1.5-1.4-1c-10.7-7.2-17.1-19.2-17.1-32.1,0-8.6,2.8-16.8,8.1-23.6l1-1.4-1.2-1.2-109.6-109.6-1.3-1.3-1.4,1.1c-6.8,5.2-14.9,8-23.6,8-12.8,0-24.8-6.4-32-17l-1-1.5-1.6,.8-261.1,130.6-1.6,.7,.6,1.7c1.4,4.1,2.1,8.3,2.1,12.7,0,8.6-2.8,16.8-8,23.6l-1.1,1.4,1.3,1.2,276.2,276.3,1.3,1.2Zm491.7-157.3l.9-1.4c2.8-4.2,6.5-7.8,10.7-10.6l1.5-1-.8-1.6-128.1-260.9-.8-1.5-1.6,.5c-4,1.4-8.2,2.1-12.4,2.1-8.8,0-17-2.9-23.9-8.3l-1.3-1.1-1.3,1.3-111.9,110.1-1.3,1.2,1.1,1.4c5.1,6.8,7.8,14.9,7.8,23.4,0,4.3-.7,8.6-2.1,12.6l-.6,1.7,1.6,.8,260.9,130.6,1.6,.7Zm-300-114.4c10.1,0,19.7-4.8,25.8-13,2.2-3,3.9-6.4,5-10,.9-2.9,1.3-6,1.3-9.1,0-6.6-1.9-12.9-5.6-18.2-2.1-3.1-4.8-5.8-7.9-8-5.5-3.9-11.9-6-18.6-6s-13.1,2-18.4,5.8c-3.1,2.2-5.8,4.8-8,7.9-3.8,5.5-5.8,11.8-5.8,18.5,0,10.1,4.9,19.7,13,25.8,3,2.2,6.4,3.9,10,5,3,.9,6,1.3,9.2,1.3h0Zm-500,0c3.1,0,6.1-.4,9-1.2,3.4-1,6.5-2.6,9.4-4.6,.13-.07,.3-.17,.5-.3l.1-.1c2.9-2.1,5.4-4.7,7.3-7.5,3.8-5.4,5.9-11.8,5.9-18.4,0-3.2-.5-6.2-1.4-9.2-1.1-3.6-2.7-7-5-10-1.87-2.53-4.07-4.77-6.6-6.7-.07,0-.17-.07-.3-.2-.6-.4-1.2-.8-1.8-1.2-.7-.4-1.4-.8-2-1.1-.27-.13-.53-.27-.8-.4l-.2-.1c-.47-.27-.97-.5-1.5-.7-.4-.2-.8-.37-1.2-.5-.8-.3-1.5-.5-2.2-.7-2.9-.9-6-1.4-9.2-1.4-10.1,0-19.8,4.9-25.8,13-2.2,3-3.9,6.4-5,10-.9,3-1.4,6-1.4,9.2s.5,6.2,1.4,9.1c1,3.5,2.7,6.9,5,10,6,8.2,15.7,13,25.8,13h0Zm-500.5,0c6.6,0,13-2,18.4-5.8,3.1-2.2,5.8-4.8,7.9-7.9,3.8-5.4,5.8-11.8,5.8-18.4s-2-13-5.8-18.4c-2.1-3.1-4.8-5.8-7.9-8-3.9-2.7-8.2-4.5-12.8-5.3-1.8-.33-3.67-.5-5.6-.5s-3.8,.2-5.6,.5c-15.4,2.7-26.6,16-26.6,31.7,0,17.7,14.4,32.1,32.2,32.1h0Zm318.9,431.9l1.6-.6c4.1-1.4,8.4-2.2,12.7-2.2,12.9,0,24.8,6.4,32.1,17l.9,1.5,1.6-.8,259.3-130.4,1.6-.8-.6-1.7c-1.4-4-2.2-8.3-2.2-12.7,0-13,6.5-25,17.3-32.2l1.4-1-.7-1.6-128.5-260.9-.8-1.6-1.6,.6c-4,1.3-8.2,2-12.5,2-12.9,0-24.9-6.4-32.1-17l-1-1.5-1.5,.8-261.8,130.6-1.5,.8,.5,1.7c1.4,4,2.1,8.3,2.1,12.6,0,12.9-6.3,24.9-17,32.1l-1.5,1,.8,1.5,130.6,261.2,.8,1.6Zm681.6-425.3c-4.4,0-8.7-.8-12.7-2.2l-1.7-.6-.7,1.6-130.6,261.2-.8,1.5,1.5,1c10.6,7.2,17,19.2,17,32.1,0,8.6-2.8,16.8-8,23.6l-1.1,1.4,1.3,1.2,276,276.3,1.2,1.2,1.4-1c6.8-5.3,15-8.1,23.6-8.1,2.5,0,5,.3,7.3,.7l1.8,.4,.5-1.7,141.2-423.4,.5-1.7-1.5-.8c-13.3-6.4-21.8-20-21.8-34.7,0-4.4,.7-8.7,2.1-12.8l.6-1.6-1.6-.8-260.9-130.5-1.5-.8-1,1.4c-7.3,10.7-19.3,17.1-32.1,17.1h0Zm-350,258.5l1.7-.5c3.9-1.4,8.1-2.1,12.4-2.1,19.4,0,35.9,14.5,38.3,33.7l.3,1.7h92.1l.2-1.7c.8-6.7,3.5-13.2,7.7-18.6l1.1-1.4-1.3-1.2-274.7-274.7c.87-.73,1.67-1.47,2.4-2.2l-2.8-2.9c-1.2,1.2-2.4,2.3-3.8,3.4-.67,.47-1.37,.97-2.1,1.5l-1.5,1,.8,1.5,128.4,261,.8,1.5Zm656.5-148.8l-.1,.2c-.13,.13-.23,.3-.3,.5l-.2,.2c-.07,.13-.13,.23-.2,.3l-.1,.2c-.27,.47-.53,.97-.8,1.5-.13,.2-.27,.43-.4,.7l-.1,.1c-.13,.33-.27,.67-.4,1-.13,.2-.27,.43-.4,.7l-.1,.2v.1c-.07,.07-.1,.17-.1,.3-.13,.33-.27,.63-.4,.9-.2,.7-.5,1.4-.7,2.1-.9,2.9-1.3,6-1.3,9.2,0,11.8,6.4,22.6,16.8,28.2,3.4,1.9,6.9,3.1,10.6,3.6,1.6,.2,3.1,.3,4.7,.3,17.8,0,32.2-14.4,32.2-32.1s-14.4-32.2-32.2-32.2c-3.1,0-6.1,.4-8.9,1.3-3.6,1-6.9,2.7-10,4.9-2.7,1.9-5,4.2-6.8,6.8-.1,.1-.2,.2-.3,.4l-.3,.3-.2,.3Zm-1140.3,50.3c3.1,0,6.2-.4,9.1-1.3,3.6-1.1,7-2.8,10-5,8.1-6.1,13-15.8,13-25.9,0-3.1-.5-6.1-1.3-9.1-1.1-3.5-2.8-6.9-5.1-10-6-8.2-15.7-13-25.7-13-6.7,0-13.1,2-18.4,5.8-3.1,2.1-5.9,4.9-8,7.9-3.8,5.4-5.8,11.8-5.8,18.4,0,10.1,4.8,19.8,13,25.8,3,2.3,6.4,4,10,5.1,2.9,.9,6,1.3,9.2,1.3h0Zm-128.1,297.9H335.4l.3-1.7c1.4-11,7.5-20.9,16.7-27.2l1.4-.9-.8-1.6-130.5-261.1-.8-1.6-1.7,.6c-4,1.4-8.3,2.1-12.6,2.1s-8.7-.7-12.7-2.1l-1.7-.6-.8,1.6L61.7,1505.9l-.8,1.6,1.5,.9c9.2,6.3,15.3,16.2,16.7,27.2l.2,1.7Zm763.4-167.8c-.07,.33-.1,.7-.1,1.1,0,.13-.03,.3-.1,.5v.9c-.1,.6-.1,1.2-.1,1.8,0,.73,.03,1.47,.1,2.2l.1,1.1v.6c.07,.13,.1,.23,.1,.3v.5c.07,.13,.1,.27,.1,.4,.07,.2,.1,.4,.1,.6,.8,4.6,2.6,8.9,5.3,12.8,2.2,3.1,4.9,5.8,8,7.9,3.7,2.7,8.2,4.5,12.7,5.3,.2,0,.4,.03,.6,.1,.13,0,.3,.03,.5,.1h.5c.07,0,.13,.03,.2,.1h.6l.5,.1h.6c.73,.07,1.47,.1,2.2,.1s1.43-.03,2.1-.1h.7l.4-.1h.6c.13-.07,.27-.1,.4-.1,0,0,.03,0,.1,0h.3c.13-.07,.27-.1,.4-.1,.2-.07,.4-.1,.6-.1,4.6-.8,9-2.6,12.8-5.3,3-2.1,5.8-4.9,7.9-7.9,3.8-5.4,5.8-11.8,5.8-18.5,0-10.2-4.7-19.6-13-25.8-3-2.2-6.3-3.9-10-5-2.9-.9-6-1.3-9.1-1.3-6.7,0-13.1,2-18.4,5.8-3.1,2.2-5.8,4.8-7.9,7.9-2.8,3.8-4.6,8.2-5.4,12.8-.07,.33-.13,.77-.2,1.3h0Zm-137.4,36.5c15.7,0,29-11.2,31.7-26.5,.33-1.87,.5-3.77,.5-5.7s-.2-3.8-.5-5.6c-2.7-15.4-16-26.5-31.7-26.5-3,0-6.1,.4-8.9,1.3-3.6,1-7,2.7-10.1,4.9-8.2,6.1-13.1,15.8-13.1,25.9,0,3.2,.4,6.4,1.3,9.3,1.1,3.6,2.8,6.9,5.1,10,1.9,2.5,4.1,4.8,6.7,6.7,3.1,2.2,6.5,3.9,10.1,4.9,2.8,.9,5.9,1.3,8.9,1.3h0Zm0,6.5c-4.2,0-8.4-.7-12.4-2.1l-1.7-.5-.7,1.6-128.5,260.9-.8,1.6,1.5,1c.73,.4,1.43,.9,2.1,1.5l1.4,1.1,1.3-1.3,276.3-276.2,1.2-1.3-1.1-1.4c-4.1-5.4-6.8-11.8-7.7-18.6l-.2-1.7h-92.1l-.2,1.7c-2.5,19.2-19,33.7-38.4,33.7h0Zm-189.1,265.1l1.4-1.1c6.8-5.2,15-8,23.7-8,4.2,0,8.4,.7,12.4,2l1.7,.6,.8-1.6,128.4-260.9,.8-1.6-1.5-.9c-4.2-2.9-7.8-6.4-10.6-10.6l-1-1.4-1.5,.8-259.3,130.4-1.6,.8,.6,1.7c1.4,4,2.1,8.3,2.1,12.7,0,8.6-2.7,16.7-7.9,23.5l-1.1,1.4,1.2,1.2,110.2,109.8,1.2,1.2Zm325.3,176l.9-1.5c6.3-9.2,16.2-15.3,27.1-16.7l1.8-.2v-422.9l-1.8-.2c-6.7-.8-13.2-3.5-18.5-7.7l-1.4-1-1.3,1.2-276.3,276.3-1.2,1.2,1.1,1.4c5.2,6.8,8,15,8,23.6,0,4.4-.7,8.6-2.1,12.7l-.6,1.6,1.6,.8,261.1,130.6,1.6,.8Zm66.1,0l1.6-.8,260.9-130.6,1.5-.8-.5-1.6c-1.5-4.1-2.2-8.3-2.2-12.7,0-8.6,2.8-16.8,8.1-23.6l1-1.4-1.2-1.2-276.1-276.3-1.2-1.2-1.4,1.1c-5.4,4.1-11.8,6.8-18.6,7.6l-1.7,.3v422.8l1.7,.2c11,1.4,20.9,7.5,27.1,16.7l1,1.5Zm-533.6-280.9c6.7,0,13-2.1,18.4-5.9,3.2-2.2,5.8-4.9,7.9-7.9,3.8-5.5,5.8-11.8,5.8-18.4,0-3-.4-6-1.3-8.9v-.3c-1.1-3.6-2.8-7-5.1-10-6.1-8.2-15.5-12.9-25.7-12.9-3.1,0-6.2,.4-9.2,1.3-3.6,1.1-7,2.8-10,5-6.6,5-11.1,12.1-12.5,20.2-.33,1.87-.5,3.73-.5,5.6s.2,3.8,.5,5.6c1.4,8.1,5.9,15.3,12.5,20.2,3,2.3,6.4,4,10,5.1,3,.8,6.1,1.3,9.2,1.3h0Zm-333.3,0c3.2,0,6.2-.5,9.2-1.3,3.6-1.1,7-2.8,10-5.1,6.7-4.9,11.1-12.1,12.5-20.2,.33-1.8,.5-3.67,.5-5.6s-.17-3.73-.5-5.6c-1.4-8.1-5.9-15.3-12.5-20.2-3-2.2-6.4-3.9-10-5-3-.9-6-1.3-9.2-1.3-17.7,0-32.1,14.4-32.1,32.1s14.4,32.2,32.1,32.2Zm152.3,265.2l1.7-.6c4-1.4,8.3-2.2,12.6-2.2s8.7,.8,12.7,2.2l1.7,.6,.8-1.6,130.5-261.2,.8-1.5-1.4-1c-9.3-6.3-15.4-16.1-16.8-27.1l-.2-1.7H79.3l-.2,1.7c-1.5,11-7.5,20.9-16.8,27.1l-1.4,1,.8,1.5,130.5,261.2,.8,1.6Zm181-258.7c-4.4,0-8.6-.7-12.7-2.1l-1.7-.6-.8,1.6-130.5,261.1-.8,1.6,1.4,.9c4.1,2.8,7.8,6.5,10.5,10.5l1,1.5,1.6-.8,261.8-130.6,1.5-.8-.6-1.7c-1.4-4-2.1-8.3-2.1-12.6,0-8.6,2.8-16.7,8-23.5l1.1-1.4-1.3-1.3-110.1-109.7-1.3-1.3-1.4,1.1c-6.8,5.3-15,8.1-23.6,8.1h0Zm833.6,160.2c1.9,0,3.8-.2,5.6-.6,15.4-2.6,26.6-15.9,26.6-31.6,0-11.8-6.5-22.6-16.9-28.3-3.4-1.8-6.9-3-10.6-3.5-1.53-.27-3.1-.4-4.7-.4-6.6,0-13,2.1-18.4,5.9-3.1,2.1-5.7,4.8-7.9,7.9-3.8,5.4-5.8,11.8-5.8,18.4,0,3.1,.4,6.2,1.3,9.2,1.1,3.6,2.8,6.9,5,10,4.9,6.6,12.1,11,20.2,12.4,1.8,.4,3.67,.6,5.6,.6h0Zm-666.3,0c10.1,0,19.7-4.9,25.8-13,2.2-3.1,3.9-6.4,5-10.1,.9-2.9,1.3-6,1.3-9.1,0-6.6-2-13-5.8-18.4-2-2.9-4.5-5.4-7.3-7.5-.27-.2-.5-.37-.7-.5-2.8-2-6-3.5-9.4-4.5-2.8-.8-5.9-1.3-8.9-1.3-6.7,0-13.1,2.1-18.5,5.9-3.1,2.2-5.8,4.9-7.9,7.9-3.8,5.4-5.8,11.8-5.8,18.4,0,3.1,.5,6.2,1.3,9.1,1.1,3.6,2.8,7,5.1,10.1,6,8.1,15.7,13,25.8,13h0Zm-295.4,131.2H836l.3-1.7c.3-2.8,.9-5.3,1.8-7.7l.5-1.7-1.5-.8-261.2-130.5-1.6-.8-1,1.4c-7.2,10.7-19.2,17.1-32,17.1s-24.9-6.4-32.1-17.1l-1-1.5-1.6,.8-261.7,130.7-1.6,.7,.6,1.7c.8,2.4,1.4,5,1.8,7.7l.2,1.7Zm928.6,149.7l1-1.5c6.3-9.2,16.2-15.3,27.1-16.7l1.7-.2v-256.2l-1.7-.2c-10.9-1.4-20.8-7.5-27.1-16.7l-1-1.5-1.5,.8-260.9,130.6-1.6,.7,.6,1.7c1.4,4.1,2.1,8.3,2.1,12.7s-.7,8.6-2.1,12.7l-.6,1.7,1.6,.8,260.9,130.5,1.5,.8Zm-300-114.3c10.2,0,19.6-4.8,25.8-13,2.3-3,3.9-6.4,5-10,.9-3,1.4-6,1.4-9.2s-.5-6.2-1.4-9.2c-1.1-3.6-2.8-6.9-5-10-5-6.6-12.1-11-20.2-12.4-1.8-.33-3.67-.5-5.6-.5s-3.8,.1-5.6,.5c-8.1,1.4-15.2,5.8-20.2,12.4-2.3,3.1-4,6.4-5,10.1-.4,1.2-.7,2.37-.9,3.5-.33,1.87-.5,3.73-.5,5.6s.2,3.8,.5,5.5c.2,1.2,.5,2.3,.9,3.6,1,3.6,2.7,7,5,10,6,8.2,15.7,13.1,25.8,13.1h0Zm-667.2,0c10.1,0,19.7-4.9,25.8-13.1,2.2-3,3.9-6.4,5-10,.4-1.4,.6-2.5,.8-3.5,.33-1.8,.5-3.67,.5-5.6,0-1.8-.2-3.7-.5-5.6-.2-1.07-.47-2.23-.8-3.5-1.1-3.6-2.8-6.9-5.1-10-1.87-2.6-4.1-4.83-6.7-6.7-.07-.07-.13-.13-.2-.2s-.13-.13-.2-.2c-.27-.2-.5-.33-.7-.4l-.2-.2c-.2-.13-.4-.23-.6-.3-.07-.07-.13-.13-.2-.2-.13-.07-.23-.13-.3-.2-.4-.2-.8-.43-1.2-.7-.2-.13-.4-.23-.6-.3-.07,0-.13-.03-.2-.1h-.1v-.1l-.3-.1c-.5-.3-1.2-.6-1.8-.8l-.1-.1h-.1l-.8-.3c-.73-.33-1.5-.6-2.3-.8l-.3-.1c-2.8-.8-5.8-1.2-8.8-1.2-3.2,0-6.3,.4-9.2,1.3-3.6,1.1-7,2.8-10,5-8.2,6.1-13,15.7-13,25.8,0,17.8,14.4,32.2,32.2,32.2h0Zm300.8,113.8l1-1.5c7.2-10.7,19.2-17.1,32.1-17.1s24.9,6.4,32.1,17.1l1,1.5,1.6-.8,261.1-130.1,1.6-.8-.6-1.7c-.9-2.4-1.5-4.9-1.8-7.6l-.2-1.7H245.8l-.2,1.7c-.4,2.6-1,5.2-1.8,7.6l-.6,1.7,1.6,.8,261.7,130.1,1.6,.8Zm660.9,17.4l.2-1.8c.4-2.6,1-5.1,1.8-7.6l.6-1.7-1.6-.8-260.9-130.5-1.5-.8-1,1.5c-7.2,10.6-19.2,17-32.1,17s-24.9-6.4-32.1-17.1l-1-1.4-1.5,.7-261.1,130.1-1.6,.8,.6,1.6c.9,2.6,1.5,5.2,1.8,7.7l.2,1.8h1.7l585.8,.5h1.7Zm-627.9,34.8c15.7,0,29-11.1,31.7-26.5,.33-1.8,.5-3.67,.5-5.6s-.2-3.8-.5-5.6c-.2-1.13-.47-2.3-.8-3.5-1.1-3.6-2.8-7-5-10-6-8.2-15.7-13.1-25.9-13.1s-19.7,4.9-25.8,13.1c-2.2,3-3.9,6.4-5,10-.9,3-1.3,6-1.3,9.1,0,17.7,14.4,32.1,32.1,32.1Zm666.4,.6c17.7,0,32.2-14.4,32.2-32.1,0-15.7-11.2-29-26.6-31.7-1.8-.33-3.67-.5-5.6-.5s-3.8,.2-5.6,.5c-8.1,1.4-15.2,5.8-20.2,12.5-2.3,3-4,6.4-5,10-.4,1.27-.67,2.43-.8,3.5-.4,1.87-.6,3.77-.6,5.7,0,1.8,.2,3.6,.5,5.5,2.7,15.4,16,26.6,31.7,26.6ZM707.8,72.8c1.8,0,3.7-.2,5.6-.5,2.47-.4,4.9-1.13,7.3-2.2,3.5-1.5,6.6-3.6,9.3-6.2,1.2-1.13,2.4-2.47,3.6-4,2.2-3.1,3.9-6.4,5-10,.9-2.9,1.4-6.1,1.4-9.2,0-17.8-14.5-32.2-32.2-32.2s-32.2,14.4-32.2,32.2c0,1.6,.13,3.13,.4,4.6,.5,3.7,1.7,7.3,3.5,10.7,2.3,4.1,5.4,7.7,9.1,10.5,3.1,2.2,6.4,3.9,10.1,5,1.27,.4,2.43,.67,3.5,.8,1.8,.33,3.67,.5,5.6,.5h0Zm0-2c-1.8,0-3.53-.17-5.2-.5-1.2-.13-2.33-.37-3.4-.7-3.4-1.1-6.5-2.7-9.4-4.7-3.5-2.6-6.4-6-8.5-9.9-1.7-3-2.8-6.4-3.3-9.9-.27-1.47-.4-2.93-.4-4.4,0-16.7,13.6-30.2,30.2-30.2s30.2,13.5,30.2,30.2c0,3-.5,5.9-1.3,8.6-1,3.4-2.7,6.6-4.7,9.4-1,1.3-2.2,2.6-3.4,3.7-2.5,2.5-5.4,4.4-8.7,5.9-2.1,.9-4.4,1.6-6.9,2.1-1.67,.27-3.4,.4-5.2,.4h0Zm-200.4,280.4L245.7,220.6c1.4-4.2,2.2-8.6,2.2-13.3,0-2.67-.23-5.27-.7-7.8L671.2,58.4c3.1,6.5,8,12,13.9,16l-130.6,261.1c-4.2-1.4-8.7-2.2-13.4-2.2-14,0-26.4,7.1-33.7,17.9h0Zm515.7,152.9L734.6,71.3c2.6-2.3,4.9-4.9,6.9-7.8l260.8,131.6c-1.2,3.8-1.8,8-1.8,12.2,0,20.7,15.4,37.7,35.4,40.3v252.7c-4.6,.5-8.9,1.9-12.8,3.8h0Zm-18.6,18.8l-291.5-97.2V81c4.6-.6,8.9-1.9,12.8-3.9l288.6,432.8c-4.1,3.6-7.5,8-9.9,13Zm-301.9-100.7l-121.5-40.5c.47-2.53,.7-5.1,.7-7.7,0-14.1-7.1-26.5-17.9-33.8L694.5,79.1c2.6,.87,5.3,1.5,8.1,1.9V422.2Zm338.5-184.8c-1.8,0-3.53-.17-5.2-.5-14.2-2.4-25-14.8-25-29.7,0-2.5,.4-5,1-7.4,.8-3.4,2.3-6.7,4.3-9.5,5.5-8,14.6-13.2,24.9-13.2,16.6,0,30.2,13.5,30.2,30.1,0,3.5-.6,6.9-1.7,10-1.2,3.4-3,6.4-5.2,9.1-4.4,5.5-10.8,9.4-18,10.6-1.73,.33-3.5,.5-5.3,.5h0Zm-833.9,0c-6.4,0-12.3-2-17.2-5.5-2.9-2-5.4-4.5-7.5-7.4-3.4-4.9-5.4-10.8-5.4-17.3,0-16.6,13.5-30.1,30.1-30.1,11.5,0,21.4,6.4,26.6,15.8,1.6,3,2.8,6.4,3.3,10,.2,1.4,.3,2.83,.3,4.3,0,3-.4,5.9-1.2,8.6-1,3.5-2.7,6.6-4.7,9.4-1.8,2.4-3.9,4.5-6.3,6.3-2.8,2-6,3.6-9.4,4.7-2.7,.8-5.6,1.2-8.6,1.2h0Zm153.3,264.7L230,241c4.3-2.9,8.1-6.7,11-11l261.7,130.6c-1.4,4.1-2.2,8.6-2.2,13.3,0,9.3,3.1,17.9,8.4,24.7l-110.2,109.8c-6.8-5.4-15.5-8.5-24.8-8.5-4.7,0-9.2,.8-13.4,2.2Zm714.2,15.5c-6.4-9.3-16.6-15.9-28.3-17.4V247.5c11.3-1.4,21.2-7.5,27.6-16.3l256.2,129.2c-1.5,4.2-2.3,8.8-2.3,13.5s.8,9.4,2.3,13.6l-255.5,130.1ZM199.5,834L58.4,410.5c13.6-6.6,22.9-20.5,22.9-36.6,0-9.3-3.1-17.9-8.4-24.8l109.6-109.6c6.9,5.3,15.5,8.4,24.8,8.4,4.7,0,9.2-.7,13.3-2.2l130.5,261.1v.1c-10.8,7.3-17.9,19.7-17.9,33.7s7.1,26.4,18,33.7l-130.6,261.2c-4.2-1.5-8.7-2.3-13.3-2.3-2.67,0-5.27,.27-7.8,.8h0ZM1368.6,404.1c-1.33,0-2.63-.1-3.9-.3-3.6-.4-7-1.5-10-3.1-4-2.1-7.5-5.1-10.1-8.6-2.1-2.8-3.8-6-4.8-9.4-.9-2.8-1.3-5.7-1.3-8.8,0-3,.4-5.87,1.2-8.6,1.1-3.4,2.7-6.6,4.8-9.4,5.5-7.4,14.3-12.1,24.1-12.1,16.6,0,30.2,13.5,30.2,30.1s-13.6,30.2-30.2,30.2h0Zm-827.4,0c-6.5,0-12.4-2-17.3-5.5-2.9-2-5.4-4.5-7.4-7.4-3.5-4.9-5.5-10.9-5.5-17.3,0-2.9,.5-5.8,1.3-8.5,1-3.4,2.6-6.6,4.7-9.4,5.5-7.4,14.3-12.2,24.2-12.2,3,0,5.9,.4,8.6,1.2,3.4,1.1,6.6,2.7,9.4,4.7,7.4,5.6,12.1,14.3,12.1,24.2,0,1.53-.1,3.03-.3,4.5-.5,3.5-1.7,6.9-3.3,9.9-5.1,9.4-15.1,15.8-26.5,15.8h0Zm-500.5,0c-1.8,0-3.57-.17-5.3-.5-14.1-2.4-24.9-14.8-24.9-29.7s10.8-27.2,24.9-29.6l.8-.2c1.47-.2,2.97-.3,4.5-.3,6.4,0,12.3,2,17.2,5.4,2.9,2.1,5.4,4.6,7.5,7.5,3.4,4.9,5.4,10.8,5.4,17.2,0,11.5-6.4,21.4-15.8,26.6-4.3,2.3-9.1,3.6-14.3,3.6h0Zm500.5,10.5c16.1,0,30-9.4,36.6-22.9l124.8,41.6v234.9c-11.8,1.5-22.1,8.1-28.4,17.5l-261.9-131.7c1.5-4.2,2.3-8.7,2.3-13.4,0-9.3-3.1-17.9-8.4-24.8l110.1-109.7c6.9,5.3,15.5,8.5,24.9,8.5h0Zm655.8,420.9l-132.9-261.3c10.7-7.3,17.7-19.6,17.7-33.6,0-4.8-.8-9.4-2.3-13.6l255.6-130.1c4.1,6,9.7,10.8,16.4,13.9l-133.7,423c-2.4-.4-4.8-.6-7.2-.6-4.8,0-9.4,.8-13.6,2.3h0ZM65.5,1008.3c-5.6-4.3-12.3-7.2-19.6-8.1V414.2c.87-.07,1.7-.17,2.5-.3l141.1,423.4c-13.6,6.6-22.9,20.5-22.9,36.6,0,9.3,3.1,17.9,8.4,24.8l-109.5,109.6Zm784.1-166.6l-109.4-108.5c5.3-6.9,8.4-15.4,8.4-24.7,0-20.6-15.5-37.7-35.5-40.3v-231.4l288.2,96c-.53,2.53-.8,5.13-.8,7.8,0,14,7.2,26.4,18,33.7l-130.6,261.2c-4.2-1.5-8.7-2.3-13.4-2.3-9.3,0-18,3.2-24.9,8.5Zm183-272.2c-.73-.2-1.43-.43-2.1-.7-.27-.13-.53-.23-.8-.3-.07-.07-.13-.1-.2-.1-.6-.27-1.17-.53-1.7-.8-.07-.07-.17-.1-.3-.1-.67-.4-1.3-.77-1.9-1.1-.07-.07-.13-.1-.2-.1-.73-.47-1.47-.97-2.2-1.5-7.3-5.5-12.2-14.3-12.2-24.2,0-1.53,.13-3,.4-4.4,.5-3.6,1.6-6.9,3.3-10,1.5-2.8,3.4-5.3,5.7-7.4,2.5-2.4,5.5-4.4,8.7-5.8,2.13-1,4.4-1.7,6.8-2.1,1.73-.33,3.5-.5,5.3-.5s3.53,.17,5.2,.5c7.7,1.3,14.4,5.6,18.9,11.5,2.1,2.8,3.7,6,4.8,9.4,.8,2.8,1.3,5.7,1.3,8.8,0,9.8-4.8,18.6-12.1,24.1-2.7,2.1-5.9,3.7-9.3,4.8-2.8,.8-5.7,1.3-8.8,1.3s-5.9-.5-8.6-1.3h0Zm-658.6,1.3c-3,0-5.9-.5-8.6-1.3-3.4-1-6.6-2.6-9.4-4.7-7.4-5.5-12.2-14.3-12.2-24.2s4.8-18.7,12.2-24.2c2.8-2.1,6-3.7,9.4-4.7,2.7-.8,5.6-1.3,8.6-1.3,6.4,0,12.4,2.1,17.3,5.6,2.9,2,5.4,4.5,7.4,7.4,3.4,4.9,5.4,10.8,5.4,17.2,0,3-.4,5.87-1.2,8.6-1,3.5-2.7,6.6-4.8,9.4-5.5,7.4-14.2,12.2-24.1,12.2h0Zm0,10.4c14,0,26.3-7,33.7-17.8l261.8,131.7c-1.5,4.2-2.2,8.7-2.2,13.4,0,2.6,.23,5.17,.7,7.7l-424,140c-3.1-6.5-8-12-13.9-16.1l130.5-261.1c4.2,1.5,8.7,2.2,13.4,2.2h0Zm667.2,0c4.8,0,9.4-.8,13.6-2.3l132.9,261.4c-10.7,7.3-17.7,19.6-17.7,33.6,0,9.2,3.1,17.7,8.2,24.5l-111.9,110.1c-6.9-5.4-15.6-8.6-25.1-8.6s-17.9,3.1-24.8,8.4l-109.6-109.6c5.3-6.9,8.5-15.5,8.5-24.8,0-14-7.2-26.4-18-33.8l130.6-261.1c4.2,1.5,8.6,2.2,13.3,2.2h0Zm-343.6,155.6c-.73-.27-1.43-.53-2.1-.8-.53-.2-1.03-.47-1.5-.8-.6-.27-1.2-.57-1.8-.9-.4-.3-.7-.5-1.1-.8-.4-.27-.8-.53-1.2-.8-3.5-2.6-6.4-6-8.5-9.9-1.7-3-2.8-6.4-3.3-10-.2-1.4-.3-2.83-.3-4.3,0-3,.4-5.9,1.2-8.6,1.1-3.4,2.7-6.6,4.7-9.4h.1c4.5-6,11.2-10.3,18.9-11.7,1.67-.27,3.4-.4,5.2-.4,1.8,0,3.57,.13,5.3,.4,14.1,2.5,24.9,14.9,24.9,29.7,0,6.4-2,12.3-5.4,17.2l-.2,.2c-.27,.47-.57,.9-.9,1.3-.07,.13-.17,.23-.3,.3,0,.07-.03,.13-.1,.2l-.4,.4c-.4,.5-.9,1-1.4,1.5-.7,.8-1.5,1.5-2.3,2.2-.53,.4-1.1,.8-1.7,1.2,0,.07-.03,.13-.1,.2-4.9,3.4-10.9,5.5-17.4,5.5-3,0-5.9-.5-8.6-1.3-.13,0-.3-.03-.5-.1-.4-.13-.8-.3-1.2-.5h0Zm-190.1,281l-261.7-130.6c1.4-4.2,2.2-8.6,2.2-13.3,0-2.6-.23-5.17-.7-7.7l424-140c3.1,6.4,7.9,12,13.9,16l-130.5,259.9c-4.2-1.4-8.7-2.2-13.4-2.2-14,0-26.4,7.1-33.8,17.9h0Zm200.4-268.6c9.5,0,18.1-3.2,25-8.5l109.4,108.5c-5.2,6.8-8.4,15.4-8.4,24.7,0,4.7,.8,9.2,2.3,13.3l-261.2,130.6c-2.9-4.3-6.6-8-10.9-11l130.5-259.9c4.2,1.5,8.7,2.3,13.3,2.3h0Zm502.8,154.9c-6.5,0-12.6-2.1-17.5-5.6-2.9-2.1-5.4-4.6-7.3-7.5-3.4-4.9-5.4-10.8-5.4-17.1,0-9.8,4.8-18.6,12.1-24.1,.4-.3,.8-.6,1.2-.9,.33-.2,.63-.4,.9-.6,.73-.47,1.5-.9,2.3-1.3,.6-.3,1.3-.6,2-.9h.1c.27-.13,.53-.27,.8-.4,.13,0,.27-.03,.4-.1,.5-.2,1-.3,1.4-.5,.07,0,.13-.03,.2-.1,2.8-.8,5.7-1.3,8.8-1.3,1.33,0,2.63,.1,3.9,.3,3.6,.5,7,1.6,10,3.2,9.7,5,16.3,15.1,16.3,26.7,0,10-4.9,18.8-12.4,24.3-2.8,2.1-6,3.7-9.5,4.7-2.6,.8-5.4,1.2-8.3,1.2h0Zm-336.1,0c-9.9,0-18.7-4.9-24.2-12.2-2.1-2.9-3.7-6-4.7-9.4-.8-2.7-1.3-5.6-1.3-8.6,0-6.4,2-12.3,5.4-17.2,.07,0,.1-.03,.1-.1,.47-.67,1-1.33,1.6-2,.5-.6,1-1.2,1.6-1.8,0,0,0-.1,.1-.1l.1-.1c.6-.6,1.23-1.17,1.9-1.7,.33-.33,.67-.63,1-.9,.33-.27,.7-.5,1.1-.7,4.9-3.5,10.9-5.6,17.3-5.6,3,0,5.9,.5,8.6,1.3,.1,0,.2,.1,.4,.1,.4,.1,.8,.3,1.2,.4,.13,.07,.23,.13,.3,.2,.47,.13,.87,.27,1.2,.4,.53,.2,1.03,.43,1.5,.7,.3,.1,.6,.3,.8,.4,.6,.27,1.13,.57,1.6,.9,.4,.27,.83,.53,1.3,.8,.4,.2,.7,.5,1.1,.8,7.4,5.5,12.2,14.3,12.2,24.2,0,6.4-2,12.4-5.5,17.3-2,2.9-4.5,5.4-7.4,7.4-4.9,3.4-10.9,5.5-17.3,5.5h0Zm-667.2,0c-6.5,0-12.4-2.1-17.3-5.5-2.9-2-5.4-4.5-7.4-7.4-3.5-4.9-5.5-10.9-5.5-17.3,0-11.4,6.4-21.4,15.8-26.5,3-1.7,6.4-2.8,10-3.3,1.4-.27,2.87-.4,4.4-.4,2.9,0,5.8,.5,8.5,1.3,3.5,1,6.6,2.6,9.4,4.7,3.5,2.6,6.5,6,8.6,9.9h0c.27,.53,.53,1.1,.8,1.7,.07,.07,.13,.17,.2,.3v.1c.27,.6,.53,1.2,.8,1.8,0,.2,.03,.37,.1,.5,.27,.67,.47,1.3,.6,1.9,.1,.2,.1,.3,.2,.5,.13,.6,.27,1.2,.4,1.8v.4c.1,.2,.1,.3,.1,.5l.1,.5c.2,1.4,.3,2.83,.3,4.3,0,3-.4,5.8-1.2,8.5-.07,.13-.1,.23-.1,.3-.07,.13-.1,.23-.1,.3-.1,.2-.2,.4-.2,.6-.13,.27-.23,.53-.3,.8-.13,.4-.3,.77-.5,1.1-.07,.27-.17,.53-.3,.8-.13,.4-.3,.77-.5,1.1-.2,.4-.4,.77-.6,1.1-.4,.8-.9,1.5-1.4,2.3-.2,.33-.43,.67-.7,1-5.5,7.4-14.3,12.3-24.2,12.3h0Zm0,10.5c14,0,26.4-7.2,33.7-18l261.8,130.6c-1.5,4.2-2.3,8.7-2.3,13.4s.8,9.1,2.3,13.3l-261.8,130.6c-7.3-10.8-19.7-18-33.7-18-9.4,0-18,3.2-24.8,8.5l-109.6-109.7c5.3-6.8,8.4-15.4,8.4-24.7s-3.1-18-8.4-24.9l109.6-109.6c6.8,5.3,15.4,8.5,24.8,8.5h0Zm642.4,427l-276.3-276.2c5.3-6.9,8.5-15.5,8.5-24.8,0-4.7-.8-9.2-2.3-13.4l261.2-130.6c7.3,10.8,19.7,18,33.7,18,9.3,0,17.9-3.2,24.8-8.5l109.6,109.6c-5.3,6.9-8.4,15.5-8.4,24.9,0,14,7.1,26.4,17.9,33.7l-130.5,261.1c-4.2-1.4-8.7-2.2-13.4-2.2-9.3,0-17.9,3.1-24.8,8.4Zm490.8-157.1l-260.9-130.6c1.4-4.2,2.2-8.7,2.2-13.3,0-9.3-3-17.8-8.2-24.6l111.9-110.1c6.9,5.4,15.6,8.7,25.1,8.7,4.6,0,8.9-.8,13-2.2l128.1,260.9c-4.4,2.9-8.3,6.7-11.2,11.2Zm-299.3-113.8c-3,0-5.9-.4-8.6-1.2-3.4-1.1-6.6-2.7-9.4-4.7-7.4-5.5-12.2-14.3-12.2-24.2,0-6.5,2-12.4,5.5-17.3,2-2.9,4.5-5.4,7.4-7.4,4.9-3.5,10.8-5.5,17.3-5.5s12.5,2.1,17.4,5.6c2.9,2,5.4,4.6,7.4,7.5,3.4,4.9,5.3,10.7,5.3,17.1,0,2.9-.4,5.8-1.2,8.5-1.1,3.4-2.7,6.6-4.7,9.4-5.5,7.4-14.3,12.2-24.2,12.2h0Zm-500,0c-9.9,0-18.7-4.8-24.2-12.2-2.1-2.8-3.7-6-4.7-9.4-.8-2.7-1.3-5.6-1.3-8.5s.5-5.9,1.3-8.6c1-3.4,2.6-6.6,4.7-9.4,5.5-7.4,14.3-12.2,24.2-12.2,3,0,5.9,.4,8.6,1.3,.73,.2,1.43,.43,2.1,.7,.33,.07,.67,.2,1,.4,.53,.2,1.03,.4,1.5,.6,.27,.13,.57,.3,.9,.5,.6,.3,1.3,.7,1.9,1.1,.6,.4,1.2,.7,1.7,1.2,.13,.07,.23,.13,.3,.2,2.4,1.7,4.4,3.8,6.2,6.2,2.1,2.8,3.7,6,4.7,9.4,.8,2.7,1.3,5.6,1.3,8.6,0,6.4-2,12.3-5.5,17.2-1.9,2.7-4.2,5.1-6.9,7.1-.2,.13-.37,.23-.5,.3-2.73,1.93-5.7,3.37-8.9,4.3-2.67,.8-5.47,1.2-8.4,1.2h0Zm-500.5,0c-16.7,0-30.2-13.5-30.2-30.1,0-14.9,10.8-27.3,24.9-29.7,1.73-.33,3.5-.5,5.3-.5s3.47,.17,5.2,.5c4.4,.7,8.5,2.5,12,5,2.9,2,5.5,4.5,7.5,7.4,3.4,4.9,5.4,10.8,5.4,17.3s-2,12.3-5.4,17.2c-2,2.9-4.6,5.4-7.5,7.4-4.8,3.5-10.8,5.5-17.2,5.5h0Zm319.9,431.4l-130.6-261.2c10.8-7.3,17.9-19.7,17.9-33.7,0-4.6-.8-9.1-2.2-13.3l261.7-130.6c7.4,10.8,19.8,17.9,33.8,17.9,4.6,0,9-.7,13.1-2.2l128.4,261c-10.9,7.3-18.1,19.7-18.1,33.9,0,4.7,.8,9.2,2.3,13.4l-259.3,130.4c-7.3-10.8-19.7-17.9-33.7-17.9-4.7,0-9.2,.8-13.3,2.3h0Zm680.6-420.9c14,0,26.4-7.1,33.7-17.9l260.9,130.5c-1.5,4.2-2.3,8.7-2.3,13.4,0,16.1,9.4,30,23,36.6l-141.2,423.4c-2.53-.47-5.13-.7-7.8-.7-9.3,0-17.9,3.1-24.7,8.4l-276.1-276.2c5.3-6.9,8.5-15.5,8.5-24.8,0-14.1-7.1-26.5-18-33.8l130.6-261.1c4.2,1.4,8.7,2.2,13.4,2.2Zm-349,254.1l-128.5-260.9c.8-.47,1.57-1,2.3-1.6,1.4-1.1,2.7-2.2,3.9-3.5-1.2,1.27-2.5,2.43-3.9,3.5l276.3,276.2c-4.3,5.6-7.2,12.3-8.1,19.6h-88.6c-2.6-20-19.6-35.4-40.3-35.4-4.6,0-9,.7-13.1,2.1h0Zm682-97.9c-1.53,0-3-.13-4.4-.4-3.6-.5-6.9-1.6-10-3.3-9.4-5.1-15.8-15.1-15.8-26.5,0-3,.5-5.9,1.3-8.6,.2-.67,.4-1.33,.6-2,.13-.33,.27-.63,.4-.9,0-.1,.1-.2,.1-.2,.1-.3,.3-.6,.4-.9,.13-.33,.27-.63,.4-.9,.13-.27,.3-.57,.5-.9,.2-.4,.43-.8,.7-1.2,.13-.2,.23-.37,.3-.5,.2-.3,.3-.5,.5-.7,.07-.13,.1-.23,.1-.3l.1-.1,.1-.1,.2-.3c.13-.13,.23-.27,.3-.4,1.8-2.4,4-4.6,6.4-6.3,2.8-2.1,6-3.7,9.4-4.7,2.67-.73,5.47-1.13,8.4-1.2,16.6,0,30.1,13.6,30.1,30.2s-13.5,30.2-30.1,30.2h0Zm-1166.9,0c-3,0-5.9-.5-8.6-1.3-3.47-1-6.6-2.57-9.4-4.7-7.4-5.5-12.2-14.3-12.2-24.2,0-6.4,2-12.4,5.5-17.3,2-2.8,4.5-5.4,7.4-7.4,4.9-3.5,10.8-5.5,17.3-5.5,9.9,0,18.7,4.9,24.1,12.2,2.1,2.9,3.8,6,4.8,9.5,.8,2.7,1.2,5.5,1.2,8.5,0,9.9-4.8,18.7-12.2,24.2-2.8,2.1-5.9,3.7-9.4,4.7-2.7,.8-5.6,1.3-8.5,1.3h0Zm0,10.5c4.6,0,9.1-.8,13.3-2.3l130.6,261.2c-9.5,6.4-16.1,16.6-17.6,28.5H81.1c-1.5-11.9-8.2-22.1-17.6-28.5l130.5-261.2c4.2,1.5,8.7,2.3,13.4,2.3h0Zm667.2,156.1c-.67,0-1.33-.03-2-.1h-1.1c-.33-.07-.63-.13-.9-.2h-.2c-.4-.1-.7-.1-1-.2-4.5-.7-8.5-2.5-12.1-4.9-2.9-2-5.4-4.6-7.4-7.5-2.5-3.5-4.2-7.6-5-12-.1-.3-.1-.7-.2-1v-.2c0-.33-.03-.67-.1-1l-.1-1c-.07-.67-.1-1.33-.1-2,0-.7,.1-1.2,.1-1.8v-.2c0-.4,.03-.77,.1-1.1,0-.4,.03-.77,.1-1.1,.07-.4,.13-.77,.2-1.1,.8-4.4,2.5-8.5,5-12,2-2.9,4.5-5.4,7.4-7.4,4.9-3.5,10.9-5.5,17.3-5.5,3,0,5.9,.4,8.6,1.2,3.4,1.1,6.6,2.7,9.4,4.7,7.4,5.6,12.2,14.4,12.2,24.3,0,6.4-2,12.3-5.5,17.2-2,2.9-4.5,5.5-7.4,7.5-3.6,2.4-7.6,4.2-12.1,4.9-.3,.1-.6,.1-1,.2h-.2c-.27,.07-.57,.13-.9,.2h-1.1c-.67,.07-1.33,.1-2,.1h0Zm-169.2,0c-2.93,0-5.73-.4-8.4-1.2-3.5-1-6.6-2.6-9.4-4.6-2.5-1.8-4.6-3.9-6.4-6.3-2.1-2.8-3.7-6-4.7-9.4-.9-2.7-1.3-5.6-1.3-8.6,0-10,4.9-18.9,12.3-24.4,2.9-2,6.1-3.6,9.5-4.6,2.67-.8,5.47-1.2,8.4-1.2,14.8,0,27.2,10.7,29.6,24.9,.33,1.67,.5,3.43,.5,5.3,0,1.73-.17,3.47-.5,5.2-2.4,14.1-14.8,24.9-29.6,24.9h0Zm0,10.5c20.7,0,37.7-15.4,40.3-35.4h88.6c.9,7.3,3.8,14,8.1,19.6l-276.3,276.2c-.73-.6-1.5-1.13-2.3-1.6l128.5-260.9c4.1,1.4,8.5,2.1,13.1,2.1h0Zm-189,260.5l-110.1-109.8c5.3-6.8,8.4-15.4,8.4-24.7,0-4.7-.8-9.2-2.3-13.4l259.3-130.4c3,4.3,6.8,8.1,11.1,11l-128.4,260.9c-4.1-1.4-8.5-2.1-13.1-2.1-9.4,0-18,3.1-24.9,8.5h0Zm324.5,176.1l-261.2-130.6c1.5-4.2,2.3-8.7,2.3-13.3,0-9.4-3.2-18-8.5-24.9l276.3-276.2c5.6,4.3,12.3,7.1,19.6,8.1v419.3c-11.9,1.5-22.1,8.1-28.5,17.6h0Zm67.4-.1c-6.4-9.4-16.6-16-28.5-17.5v-419.3c7.3-1,14-3.8,19.6-8.1l276,276.2c-5.3,6.9-8.4,15.5-8.4,24.9,0,4.6,.8,9.1,2.2,13.3l-260.9,130.5Zm-534.3-280.4c-3,0-5.9-.4-8.6-1.2-3.4-1.1-6.6-2.7-9.4-4.8-6-4.5-10.3-11.2-11.7-18.9-.27-1.73-.4-3.5-.4-5.3s.13-3.47,.4-5.2c1.4-7.7,5.7-14.4,11.7-19,2.8-2,6-3.6,9.4-4.7,2.7-.8,5.6-1.2,8.6-1.2,9.9,0,18.6,4.7,24.1,12.1,2.1,2.8,3.7,6,4.8,9.4,.8,2.73,1.2,5.6,1.2,8.6,0,6.4-2,12.4-5.4,17.2-2,2.9-4.5,5.5-7.4,7.5-4.9,3.5-10.9,5.5-17.3,5.5h0Zm-333.2,0c-16.7,0-30.2-13.5-30.2-30.2s13.5-30.1,30.2-30.1c2.9,0,5.8,.4,8.5,1.2,3.4,1.1,6.6,2.7,9.4,4.7,6.1,4.5,10.4,11.3,11.8,19,.27,1.73,.4,3.47,.4,5.2s-.17,3.57-.5,5.3c-1.3,7.7-5.6,14.4-11.7,19-2.8,2-6,3.6-9.4,4.7-2.7,.8-5.6,1.2-8.5,1.2h0Zm153.2,264.7L63.5,1574.2c9.4-6.4,16-16.7,17.6-28.5h252.6c1.5,11.8,8.1,22.1,17.6,28.4l-130.6,261.2c-4.2-1.4-8.7-2.2-13.3-2.2s-9.2,.8-13.4,2.2Zm180-254.2c9.4,0,18-3.2,24.9-8.5l110.1,109.7c-5.3,6.9-8.4,15.5-8.4,24.8,0,4.6,.8,9.1,2.3,13.3l-261.8,130.6c-2.9-4.3-6.7-8.1-11-11l130.5-261.1c4.2,1.4,8.7,2.2,13.4,2.2Zm833.6,156.2c-1.8,0-3.53-.17-5.2-.5-7.8-1.4-14.5-5.7-19-11.7-2.1-2.9-3.7-6-4.7-9.4-.8-2.7-1.2-5.6-1.2-8.6,0-6.4,2-12.4,5.4-17.3,2.1-2.9,4.6-5.4,7.5-7.4,4.9-3.5,10.8-5.5,17.2-5.5,1.53,0,3,.13,4.4,.4,3.6,.5,6.9,1.6,10,3.3,9.4,5.1,15.8,15.1,15.8,26.5,0,14.8-10.8,27.2-24.9,29.7-1.73,.33-3.5,.5-5.3,.5h0Zm-666.3,0c-9.9,0-18.7-4.9-24.2-12.2-2.1-2.9-3.7-6-4.7-9.5-.8-2.7-1.3-5.5-1.3-8.5,0-6.4,2-12.3,5.5-17.2,2-2.9,4.5-5.4,7.4-7.5,4.9-3.4,10.8-5.5,17.3-5.5,2.93,0,5.73,.4,8.4,1.2,3.2,1,6.2,2.4,8.8,4.3,.2,.13,.4,.27,.6,.4,2.7,1.9,5,4.3,6.9,7,3.4,4.9,5.4,10.9,5.4,17.3,0,3-.4,5.9-1.2,8.6-1,3.4-2.6,6.5-4.7,9.4-5.5,7.3-14.3,12.2-24.2,12.2h0Zm-293.6,131.2c-.4-2.8-1.03-5.5-1.9-8.1l261.7-130.6c7.4,10.8,19.7,18,33.8,18s26.4-7.2,33.7-18l261.2,130.6c-.93,2.6-1.57,5.3-1.9,8.1H247.7Zm926.2,149.1l-260.8-130.5c1.4-4.2,2.2-8.7,2.2-13.4s-.8-9.1-2.2-13.3l260.8-130.6c6.4,9.5,16.7,16.1,28.5,17.6v252.7c-11.8,1.5-22.1,8.1-28.5,17.5Zm-299.3-113.7c-9.9,0-18.7-4.8-24.2-12.2-2.1-2.8-3.7-6-4.7-9.4-.3-1.1-.6-2.2-.8-3.3-.27-1.73-.4-3.5-.4-5.3s.13-3.47,.4-5.2c.2-1.13,.47-2.23,.8-3.3,1-3.5,2.6-6.6,4.7-9.4,4.5-6.1,11.3-10.4,19-11.7,1.67-.33,3.4-.5,5.2-.5s3.57,.17,5.3,.5c7.7,1.3,14.4,5.6,18.9,11.7,2.13,2.8,3.7,5.9,4.7,9.3,.8,2.8,1.3,5.6,1.3,8.6s-.5,5.9-1.3,8.6c-1,3.5-2.6,6.6-4.7,9.4-5.5,7.4-14.3,12.2-24.2,12.2h0Zm-667.2,0c-16.7,0-30.2-13.5-30.2-30.1,0-10,4.8-18.7,12.2-24.2,2.8-2.1,6-3.7,9.4-4.8,2.7-.8,5.6-1.2,8.6-1.2s5.9,.4,8.6,1.2c.67,.27,1.37,.53,2.1,.8,.27,.07,.53,.17,.8,.3,.07,0,.13,.03,.2,.1,.53,.2,1.07,.43,1.6,.7,.13,.07,.27,.13,.4,.2,.2,.1,.5,.2,.7,.4,.4,.2,.8,.43,1.2,.7,.07,0,.13,.03,.2,.1,.1,.1,.2,.1,.3,.2,.2,.1,.5,.3,.7,.5,.2,.07,.43,.2,.7,.4l.2,.2c.07,.07,.13,.1,.2,.1,2.4,1.8,4.5,3.9,6.3,6.3,2,2.8,3.7,6,4.7,9.4,.33,1.07,.6,2.17,.8,3.3,.27,1.73,.4,3.5,.4,5.3s-.17,3.47-.5,5.2c-.1,1.1-.4,2.2-.7,3.3-1,3.4-2.6,6.5-4.7,9.4-5.5,7.4-14.3,12.2-24.2,12.2h0Zm300.1,113.2l-261.7-130.1c.93-2.6,1.57-5.27,1.9-8H834.3c.33,2.8,.97,5.47,1.9,8l-261.1,130.1c-7.3-10.8-19.7-18-33.8-18s-26.5,7.2-33.8,18Zm659.9,18l-585.8-.5c-.3-2.8-.9-5.5-1.8-8.1l261.1-130.1c7.3,10.9,19.7,18,33.7,18s26.4-7.1,33.8-17.9l260.8,130.5c-.8,2.6-1.5,5.3-1.8,8.1Zm-626.1,34.8c-16.6,0-30.1-13.5-30.1-30.1,0-3,.4-5.8,1.2-8.5,1-3.4,2.6-6.6,4.7-9.4,5.5-7.4,14.3-12.3,24.2-12.3s18.8,4.9,24.2,12.3c2.1,2.8,3.7,6,4.7,9.4,.33,1.07,.6,2.17,.8,3.3,.33,1.67,.5,3.4,.5,5.2s-.17,3.57-.5,5.3c-2.5,14.1-14.9,24.8-29.7,24.8h0Zm666.4,.6c-14.9,0-27.3-10.8-29.7-24.9-.33-1.73-.5-3.47-.5-5.2s.2-3.6,.5-5.3c.13-1.13,.37-2.23,.7-3.3,1.1-3.5,2.7-6.6,4.7-9.4,4.6-6,11.3-10.4,19-11.7,1.73-.33,3.5-.5,5.3-.5s3.47,.17,5.2,.5c14.1,2.5,24.9,14.8,24.9,29.7,0,16.6-13.5,30.1-30.1,30.1h0Z"/>
    </g>
  </g>
</svg>