<svg xmlns="http://www.w3.org/2000/svg" width="16" height="17" viewBox="0 0 16 17" fill="none">
<path d="M7.9998 8.59983C8.4948 8.59983 8.9187 8.43519 9.27151 8.10591C9.6237 7.77719 9.7998 7.38183 9.7998 6.91983C9.7998 6.45783 9.6237 6.06219 9.27151 5.73291C8.9187 5.40419 8.4948 5.23983 7.9998 5.23983C7.50481 5.23983 7.08121 5.40419 6.72901 5.73291C6.3762 6.06219 6.1998 6.45783 6.1998 6.91983C6.1998 7.38183 6.3762 7.77719 6.72901 8.10591C7.08121 8.43519 7.50481 8.59983 7.9998 8.59983ZM7.9998 16.9998C5.58481 15.0818 3.7812 13.3002 2.589 11.6549C1.3962 10.0102 0.799805 8.48783 0.799805 7.08783C0.799805 4.98783 1.5237 3.31483 2.9715 2.06883C4.4187 0.822829 6.0948 0.199829 7.9998 0.199829C9.90481 0.199829 11.5809 0.822829 13.0281 2.06883C14.4759 3.31483 15.1998 4.98783 15.1998 7.08783C15.1998 8.48783 14.6037 10.0102 13.4115 11.6549C12.2187 13.3002 10.4148 15.0818 7.9998 16.9998Z" fill="#799DAB"/>
</svg>