<svg xmlns="http://www.w3.org/2000/svg" width="16" height="15" viewBox="0 0 16 15" fill="none">
<g clip-path="url(#clip0_737_2457)">
<path fill-rule="evenodd" clip-rule="evenodd" d="M2.49673 1.05998C2.65421 0.902743 2.8433 0.780766 3.05149 0.702134C3.25967 0.623503 3.48219 0.590013 3.70429 0.603884C3.9264 0.617755 4.14302 0.67867 4.33981 0.782593C4.53659 0.886515 4.70904 1.03107 4.84573 1.20668L6.46123 3.28208C6.75733 3.66278 6.86173 4.15868 6.74473 4.62668L6.25243 6.59768C6.22698 6.69977 6.22835 6.8067 6.25642 6.9081C6.28449 7.0095 6.3383 7.10192 6.41263 7.17638L8.62393 9.38768C8.69848 9.46216 8.79105 9.51606 8.89263 9.54414C8.9942 9.57221 9.10131 9.5735 9.20353 9.54788L11.1736 9.05558C11.4046 8.99784 11.6456 8.99335 11.8786 9.04247C12.1115 9.09158 12.3303 9.19301 12.5182 9.33908L14.5936 10.9537C15.3397 11.5342 15.4081 12.6367 14.7403 13.3036L13.8097 14.2342C13.1437 14.9002 12.1483 15.1927 11.2204 14.866C8.84549 14.0304 6.68917 12.6707 4.91143 10.888C3.12879 9.1105 1.76918 6.9545 0.933429 4.57988C0.607629 3.65288 0.900129 2.65658 1.56613 1.99058L2.49673 1.05998Z" fill="#799DAB"/>
</g>
<defs>
<clipPath id="clip0_737_2457">
<rect width="14.4" height="14.4" fill="white" transform="translate(0.799805 0.599976)"/>
</clipPath>
</defs>
</svg>