<?xml version="1.0" encoding="UTF-8" standalone="no"?>

<svg width="24" height="24" viewBox="0 0 24 24" fill="none" xmlns="http://www.w3.org/2000/svg">
<path d="M21.4133 5.93098C20.7825 6.20244 20.1194 6.39148 19.4402 6.4934C19.7577 6.43898 20.2249 5.86748 20.4109 5.63616C20.6934 5.28723 20.9087 4.88891 21.0459 4.46142C21.0459 4.42967 21.0776 4.38431 21.0459 4.36163C21.0299 4.3529 21.0119 4.34832 20.9937 4.34832C20.9755 4.34832 20.9576 4.3529 20.9416 4.36163C20.2041 4.76096 19.4193 5.06574 18.6057 5.26877C18.5773 5.27743 18.5471 5.27821 18.5184 5.27102C18.4896 5.26383 18.4633 5.24894 18.4424 5.22795C18.3791 5.15253 18.3109 5.08132 18.2383 5.01477C17.9064 4.71743 17.5299 4.47407 17.1225 4.2936C16.5726 4.06798 15.9786 3.97027 15.3853 4.00785C14.8097 4.0442 14.2478 4.19859 13.7344 4.46142C13.2288 4.73851 12.7845 5.11495 12.4281 5.56812C12.0532 6.03455 11.7825 6.57585 11.6343 7.15561C11.5121 7.70709 11.4983 8.27706 11.5935 8.83382C11.5935 8.92907 11.5935 8.94268 11.5119 8.92907C8.27792 8.45282 5.62455 7.30529 3.45649 4.84241C3.36124 4.73356 3.31135 4.73356 3.23424 4.84241C2.29082 6.27569 2.74892 8.54354 3.9282 9.66385C4.08695 9.81353 4.25023 9.95867 4.42259 10.0947C3.8819 10.0564 3.35441 9.90983 2.87138 9.66385C2.78067 9.60489 2.73078 9.63664 2.72624 9.74549C2.71338 9.89641 2.71338 10.0481 2.72624 10.1991C2.82088 10.9223 3.10591 11.6075 3.55219 12.1844C3.99847 12.7614 4.58998 13.2095 5.26623 13.4829C5.43108 13.5535 5.60286 13.6067 5.77876 13.6416C5.27821 13.7402 4.76484 13.7555 4.2593 13.687C4.15045 13.6643 4.10963 13.7233 4.15045 13.8276C4.81719 15.6419 6.26408 16.1952 7.32543 16.5037C7.47057 16.5263 7.61571 16.5263 7.779 16.5626C7.779 16.5626 7.779 16.5626 7.75178 16.5898C7.43882 17.1613 6.17336 17.5469 5.5928 17.7464C4.53311 18.1271 3.40329 18.2726 2.28175 18.1728C2.10485 18.1456 2.06403 18.1501 2.01868 18.1728C1.97332 18.1955 2.01868 18.2454 2.06857 18.2907C2.29535 18.4404 2.52214 18.5719 2.75799 18.6989C3.46014 19.0819 4.20245 19.3861 4.97141 19.6061C8.95374 20.7037 13.435 19.8964 16.424 16.9255C18.7735 14.5941 19.599 11.3783 19.599 8.158C19.599 8.03554 19.7487 7.96297 19.8349 7.89947C20.4293 7.43633 20.9533 6.88937 21.3906 6.27569C21.4663 6.18421 21.5052 6.06774 21.4995 5.94912C21.4995 5.88109 21.4995 5.89469 21.4133 5.93098Z" fill="#799DAB"/>
</svg>


